<?xml version="1.0" encoding="UTF-8"?>
<!-- Generator: visioncortex VTracer 0.6.12 -->
<svg version="1.1" xmlns="http://www.w3.org/2000/svg" viewBox="0 0 191 257">
<path d="M0 0 C0.3 0.3 0.3 0.3 2 2 C2.8 2.3 2.8 2.3 6.6 3.8 C16.6 7.9 22 14.1 28.4 22.6 C31 26 31 26 35 30.4 C45.5 43.1 45.7 63.4 46.2 79.1 C46.3 80.8 46.4 82.5 46.5 84.3 C47 96.4 47 96.4 47 102.3 C47 106.7 48 110.7 49 115 C50.4 124.7 51 135.3 49 145 C48.7 145.3 48.3 145.7 48 146 C47.8 148.9 47.6 151.7 47.5 154.6 C45.8 183.8 45.8 183.8 34.7 194.8 C24.9 202.8 13.5 206.9 1.7 210.9 C-5.3 214 -9 218 -12 225 C-11.2 225.8 -10.3 226.7 -9.5 227.5 C-6.5 231.7 -6.8 233.9 -7 239 C-9.7 239.1 -12.4 239.1 -15.1 239.2 C-16.6 239.2 -18.1 239.3 -19.6 239.3 C-24.1 239 -27 238 -31 236 C-34.7 234.5 -34.7 234.5 -39 234 C-41.8 235.2 -44.6 236.5 -47.4 237.8 C-54.4 240.1 -61.8 239.4 -69 239 C-68.7 232.5 -68.3 228.8 -64 224 C-65.7 222 -67.4 220.1 -69.1 218.2 C-70 217.1 -70.9 216 -71.9 214.9 C-76.8 210.3 -82.4 208.8 -88.8 206.8 C-100.3 202.7 -110.5 195.1 -116.5 184.2 C-119.9 177.1 -121.9 170.7 -122.4 162.9 C-123 156.9 -123.3 156.1 -127 152 C-130 141.9 -129.6 133.5 -126.1 123.7 C-123.3 114.2 -122.7 104.7 -122.4 94.9 C-122.4 92.6 -122.3 90.2 -122.2 87.8 C-122.2 86.7 -122.1 85.5 -122.1 84.3 C-122 79.7 -121.8 75 -121.6 70.4 C-121.5 69 -121.4 67.5 -121.4 66.1 C-120.6 57.5 -118.8 46.2 -114 39 C-113.8 38 -113.6 36.9 -113.4 35.9 C-111.8 31.5 -109.4 28.8 -106.3 25.5 C-103.9 22.9 -101.8 20.2 -99.6 17.4 C-93.7 10.1 -86.8 5.4 -78 2 C-76.6 1.3 -75.3 0.7 -73.9 0 C-51.3 -9.3 -22.6 -9 0 0 Z " fill="#523526" transform="translate(135,12)"/>
<path d="M0 0 C0.3 0.3 0.3 0.3 2 2 C2.8 2.3 2.8 2.3 6.6 3.8 C16.6 7.9 22 14.1 28.4 22.6 C31 26 31 26 35 30.4 C45.5 43.1 45.7 63.4 46.2 79.1 C46.3 80.8 46.4 82.6 46.5 84.4 C47.1 99.6 47.1 99.6 47 105 C46 106 46 106 42.4 106.1 C41.3 106 40.2 106 39 106 C38 101 37.7 96.3 37.5 91.2 C37.2 85.1 36.8 79.1 36 73 C32 75.3 28 77.6 24 80 C19.3 82.8 15.2 84.3 10 86 C9.2 86.3 9.2 86.3 5 88 C-3.1 88.4 -9.2 87.7 -17 85 C-17 84 -17 83 -17 82 C-15.3 82.3 -13.7 82.7 -12 83 C-9.1 83.1 -6.1 83.2 -3.2 83.2 C-1.7 83.3 -0.1 83.3 1.5 83.3 C6.2 83 9.6 81.8 14 80 C15 80 16 80 17 80 C17 79.3 17 78.7 17 78 C18 77 19 76 20 75 C20.3 74.3 20.7 73.7 21 73 C16.7 74.8 13 76.6 9 79 C-1 80.1 -10.1 79.8 -19 75 C-20 74.5 -21 74 -22 73.5 C-25.4 69.2 -25.4 64.3 -26 59 C-26.7 59 -27.3 59 -28 59 C-29.8 51 -30.3 43.2 -26 36 C-19.6 28.4 -13.3 23.5 -3.1 22.5 C5.8 23.4 13 26.4 20 32 C17.1 27.1 15.5 25.9 11 23 C11 22.3 11 21.7 11 21 C9.8 20.9 8.5 20.7 7.3 20.6 C5.7 20.4 4 20.2 2.4 20.1 C0.8 19.9 -0.8 19.7 -2.5 19.5 C-7 19 -7 19 -10.3 18.3 C-14.9 17.8 -18 19.8 -22 22 C-26.4 25.5 -29.5 27.9 -32 33 C-33.3 33.3 -34.6 33.7 -36 34 C-36 34.7 -36 35.3 -36 36 C-37 36 -38 36 -39 36 C-41.4 33.4 -43.7 30.7 -46 28 C-46.5 27.7 -46.5 27.7 -49 26 C-49 25.3 -49 24.7 -49 24 C-49.7 24 -50.3 24 -51 24 C-51.2 23.7 -51.2 23.7 -52 22 C-53.7 21.3 -55.3 20.7 -57 20 C-58 19 -59 18 -60 17 C-63.5 16.5 -63.5 16.5 -67.8 16.3 C-69.1 16.2 -70.5 16.2 -71.9 16.1 C-75.6 16 -79.3 16 -83 16 C-83 16.7 -83 17.3 -83 18 C-86 21 -86 21 -88.9 21.6 C-93.6 23.7 -94.2 27.4 -96 32 C-97 33.3 -98 34.6 -99 36 C-101.7 43.1 -101.9 50 -99.8 57.2 C-98.1 60.8 -96.2 63.8 -94 67 C-94.2 66 -94.4 65 -94.6 63.9 C-98.5 44.3 -98.5 44.3 -95 36 C-88.6 28.2 -81.8 23.6 -71.7 22.4 C-65 23.1 -58.9 24.7 -53 28 C-52.7 28.7 -52.7 28.7 -51 32 C-49.7 32.7 -48.4 33.3 -47 34 C-47 34.7 -47 35.3 -47 36 C-45.7 36.7 -44.4 37.3 -43 38 C-42.2 41.4 -42.2 41.4 -42 46 C-41.9 47.8 -41.8 49.5 -41.6 51.4 C-42.2 60.1 -45.3 65.8 -51.7 71.6 C-56 75 -56 75 -58 75 C-58 75.7 -58 76.3 -58 77 C-64.7 80.3 -71.7 81.6 -79 83 C-79 84.3 -79 85.6 -79 87 C-84.6 87 -87.2 85.6 -92 83 C-84.1 95.1 -84.1 95.1 -77 97 C-77.2 97.5 -77.2 97.5 -78 100 C-81 100.7 -84 101.3 -87 102 C-91.4 104.4 -92.7 105.5 -95 110 C-95 112 -95 114 -95 116 C-94 117 -93 118 -92 119 C-89 124 -89 124 -88 126 C-95 124.3 -100.7 119 -106.4 114.8 C-111.7 111.6 -116.1 110.4 -122 109 C-122.3 108.7 -122.7 108.3 -123 108 C-122.9 103.9 -122.8 99.8 -122.6 95.6 C-122.6 94.4 -122.5 93.2 -122.5 91.9 C-122.4 89.4 -122.3 87 -122.2 84.5 C-122 81.4 -121.9 78.4 -121.8 75.3 C-121.7 73.7 -121.6 72 -121.6 70.4 C-121.5 69 -121.4 67.5 -121.4 66.1 C-120.6 57.5 -118.8 46.2 -114 39 C-113.8 38 -113.6 36.9 -113.4 35.9 C-111.8 31.5 -109.4 28.8 -106.3 25.5 C-103.9 22.9 -101.8 20.2 -99.6 17.4 C-93.7 10.1 -86.8 5.4 -78 2 C-76.6 1.3 -75.3 0.7 -73.9 0 C-51.3 -9.3 -22.6 -9 0 0 Z " fill="#BFBAA9" transform="translate(135,12)"/>
<path d="M0 0 C1.4 0.1 2.8 0.1 4.2 0.2 C7.8 0.8 7.8 0.8 11.8 4.8 C13.5 5.5 15.1 6.1 16.8 6.8 C16.8 7.5 16.8 8.1 16.8 8.8 C17.5 8.8 18.1 8.8 18.8 8.8 C18.8 9.5 18.8 10.1 18.8 10.8 C20.1 11.5 21.5 12.1 22.8 12.8 C23.8 13.8 24.8 14.8 25.8 15.8 C25.8 16.5 25.8 17.1 25.8 17.8 C26.3 18 26.3 18 28.8 18.8 C28.8 19.5 28.8 20.1 28.8 20.8 C29.8 20.8 30.8 20.8 31.8 20.8 C31.8 20.2 31.8 19.5 31.8 18.8 C33.1 18.2 34.5 17.5 35.8 16.8 C36.8 15.2 37.8 13.5 38.8 11.8 C41.1 9.6 41.1 9.6 43.6 7.6 C44.5 7 45.3 6.3 46.1 5.6 C52 1.7 56.4 1.7 63.2 2.6 C64.7 2.7 66.1 2.9 67.6 3.1 C71.5 3.8 75.1 4.7 78.8 5.8 C78.8 6.5 78.8 7.1 78.8 7.8 C80.5 8.5 82.1 9.1 83.8 9.8 C87.8 13.8 87.8 13.8 87.8 16.8 C83.8 14.8 83.8 14.8 80.5 12.8 C73.6 9.1 67.7 8.2 59.8 8.8 C51.6 11.3 46.2 16.4 40.8 22.8 C39.4 26.9 39.7 30.7 39.8 35 C39.8 36.6 39.8 38.3 39.8 40 C39.8 41.2 39.8 42.5 39.8 43.8 C40.5 43.8 41.1 43.8 41.8 43.8 C42 44.8 42 44.8 42.8 49.5 C44 54.5 44.5 55.6 48.6 58.9 C58.1 63.2 66.5 63.8 76.8 62.8 C82.2 60.3 82.2 60.3 85.8 57.8 C86.8 57.8 87.8 57.8 88.8 57.8 C88.2 59.5 87.5 61.1 86.8 62.8 C86.2 62.8 85.5 62.8 84.8 62.8 C84.8 63.5 84.8 64.1 84.8 64.8 C75.2 69.2 66.3 69.7 55.8 68.8 C54.2 68.2 52.5 67.5 50.8 66.8 C50.8 67.8 50.8 68.8 50.8 69.8 C63.3 72.7 74 72.9 85.8 67.8 C86.8 66.8 87.8 65.8 88.8 64.8 C89.9 64.3 91 63.9 92.2 63.4 C95.6 61.9 97.9 60.2 100.8 57.8 C101.8 57.8 102.8 57.8 103.8 57.8 C105.9 64.8 106.2 71.5 106.4 78.8 C106.5 80 106.5 81.1 106.6 82.3 C106.6 85.1 106.7 88 106.8 90.8 C108.1 91.1 109.5 91.5 110.8 91.8 C108.9 92.4 107.1 93 105.1 93.6 C100.7 95 97.1 96.3 93.8 99.8 C93.5 100.8 93.2 101.8 92.8 102.8 C84 110 77.1 112 66 111.9 C65.3 111.9 65.3 111.9 61.6 111.9 C60 111.9 58.5 111.9 56.9 111.9 C55.4 111.9 53.8 111.9 52.2 111.9 C48.4 111.8 44.6 111.8 40.8 111.8 C40.8 108.7 40.8 105.5 40.8 102.4 C40.7 100.6 40.7 98.9 40.7 97.1 C40.8 92.2 41.2 87.6 41.8 82.8 C40.8 82.8 39.8 82.8 38.8 82.8 C37.8 81.8 36.8 80.8 35.8 79.8 C35.6 80.3 35.6 80.3 34.8 82.8 C33.2 82.5 31.5 82.2 29.8 81.8 C29.5 82.1 29.2 82.5 28.8 82.8 C27.2 82.8 25.5 82.8 23.8 82.8 C24 83.7 24.2 84.7 24.4 85.6 C24.8 88.8 24.8 88.8 23.8 91.8 C24.5 91.8 25.1 91.8 25.8 91.8 C25.5 92.5 25.5 92.5 23.8 95.8 C23.3 96 23.3 96 20.8 96.8 C21.6 97.5 22.5 98.2 23.3 98.9 C25.8 101.8 25.8 101.8 25.8 107.8 C20.9 110.3 18.2 109.6 12.8 108.8 C10.8 108.8 10.8 108.8 8.2 111.1 C5.8 113.8 5.8 113.8 4.8 116.8 C4.3 116.5 4.3 116.5 1.8 114.8 C-2.2 119.4 -2.2 119.4 -2.2 122.8 C-3.2 123.1 -4.2 123.5 -5.2 123.8 C-5 123.2 -5 123.2 -4.2 119.8 C-4.8 119.8 -5.5 119.8 -6.2 119.8 C-6.2 120.8 -6.2 121.8 -6.2 122.8 C-9.2 124.8 -9.2 124.8 -12.2 124.8 C-11.9 125.8 -11.5 126.8 -11.2 127.8 C-10.5 128.1 -9.9 128.5 -9.2 128.8 C-9.5 130.5 -9.8 132.1 -10.2 133.8 C-10.2 134.8 -10.2 135.8 -10.2 136.8 C-11.2 137.1 -12.2 137.5 -13.2 137.8 C-13.2 139.5 -13.2 141.1 -13.2 142.8 C-14.5 143.1 -15.8 143.5 -17.2 143.8 C-19.9 146.4 -19.9 146.4 -22.2 148.8 C-26.2 146.8 -26.2 146.8 -29.2 143.8 C-29.5 145.3 -29.7 146.7 -30 148.2 C-30.4 149.8 -30.8 151.3 -31.2 152.8 C-34.2 153.8 -34.2 153.8 -39.2 151.8 C-41.6 151.4 -44 151.1 -46.4 150.8 C-53.1 149.9 -53.1 149.9 -54.2 148.8 C-54.3 147.7 -54.4 146.7 -54.5 145.6 C-55.2 141.8 -55.2 141.8 -57.1 139.4 C-61.9 133.4 -61.7 125.2 -61.2 117.8 C-60.3 114.5 -59.3 111.3 -58.2 108.1 C-56.7 103.4 -56 98.7 -55.2 93.8 C-42.2 94.6 -32.9 101.7 -23.2 109.8 C-22.9 109.5 -22.5 109.2 -22.2 108.8 C-22.5 108.5 -22.5 108.5 -24.2 106.8 C-24.2 105.8 -24.2 104.8 -24.2 103.8 C-25.2 103.5 -26.2 103.2 -27.2 102.8 C-28.2 100.8 -28.2 100.8 -28.2 94.8 C-25.5 89.1 -21.9 87.2 -16.2 84.8 C-14.2 84.4 -12.2 84.1 -10.2 83.8 C-9.9 83.2 -9.5 82.5 -9.2 81.8 C-10.8 81.5 -12.5 81.2 -14.2 80.8 C-17.9 77.5 -21.1 73.7 -24.2 69.8 C-24.2 69.2 -24.2 68.5 -24.2 67.8 C-17.3 69.7 -17.3 69.7 -16.2 70.8 C-14.5 70.8 -12.9 70.8 -11.2 70.8 C-10.9 70.2 -10.5 69.5 -10.2 68.8 C-10.5 68.6 -10.5 68.6 -12.2 67.8 C-6.2 65.7 -0.4 64.1 5.8 62.8 C7.1 62.5 8.5 62.2 9.8 61.8 C9.8 61.2 9.8 60.5 9.8 59.8 C11 58.9 12.2 58 13.5 57.1 C19.3 52.7 22.1 48.6 24.8 41.8 C24.9 38.1 24.9 34.5 24.8 30.8 C24.8 29.4 24.8 28 24.8 26.5 C23.5 21.5 20.9 19.9 16.8 16.8 C15.5 15.5 14.2 14.2 12.8 12.8 C4.5 9.1 -3.6 6.7 -12.5 10.1 C-13.4 10.6 -14.3 11.2 -15.2 11.8 C-16.2 12.4 -17.2 13 -18.2 13.6 C-24 17.9 -26.7 21.3 -28.8 28.3 C-29.7 34.9 -28 40.4 -26 46.7 C-25.2 49.8 -25.2 49.8 -26.2 52.8 C-32.8 45.3 -34.6 37.7 -34.2 27.8 C-32.7 22.1 -31 18.3 -27.2 13.8 C-26.5 11.8 -25.8 9.8 -25.2 7.8 C-24.5 7.2 -23.9 6.5 -23.2 5.8 C-21.5 5.8 -19.9 5.8 -18.2 5.8 C-17.9 4.8 -17.5 3.8 -17.2 2.8 C-16.5 2.8 -15.9 2.8 -15.2 2.8 C-15.2 2.2 -15.2 1.5 -15.2 0.8 C-10 -0.1 -5.2 -0.3 0 0 Z " fill="#A36F42" transform="translate(67.1875,27.1875)"/>
<path d="M0 0 C-2 4 -2 4 -6 8 C-5.8 12.6 -5.1 16.6 -4 21 C0.7 21.6 5.2 22 10 22 C10.7 20.3 11.3 18.7 12 17 C12.4 15.9 12.9 14.9 13.3 13.8 C14.3 8.6 12.8 4.9 11 0 C13.6 -0.3 16.3 -0.7 19 -1 C18.7 0.7 18.3 2.3 18 4 C18.3 4.5 18.3 4.5 20 7 C20 8 20 9 20 10 C23.3 9 26.6 8 30 7 C31 8.7 32 10.3 33 12 C33.3 12.3 33.3 12.3 35 14 C36 14 37 14 38 14 C38 13.3 38 12.7 38 12 C36.7 11.3 35.4 10.7 34 10 C33.7 9.7 33.7 9.7 32 8 C32 3 32 3 34 1 C37.1 1.4 37.1 1.4 40 2 C41 8.8 41 8.8 41 11 C42 10.7 43 10.3 44 10 C43 14 43 14 40.1 16.1 C36 18 36 18 30.6 19.5 C29.1 20 27.6 20.5 26 21 C24.8 25.7 25.4 29.3 26 34 C29.6 34 33.3 34 37 34 C35 36 35 36 30 37.4 C25 39 25 39 23 42 C21 42 19 42 17 42 C15 42.3 13 42.6 11 43 C10 43 9 43 8 43 C7.7 42 7.3 41 7 40 C6.3 40.7 5.7 41.3 5 42 C5 43.3 5 44.6 5 46 C4.9 48.3 4.8 50.7 4.6 53 C4.6 54.2 4.5 55.4 4.4 56.7 C4 60 4 60 2 64 C2 64.7 2 65.3 2 66 C3 65.7 4 65.3 5 65 C6.3 66 7.6 67 9 68 C14.2 68.6 17 68 21.9 65.9 C27.6 63.8 31.1 64 37 65 C37.3 66 37.7 67 38 68 C39.4 67.9 40.9 67.9 42.4 67.8 C43.9 67.9 45.4 67.9 47 68 C47.3 68.5 47.3 68.5 49 71 C41.4 74.6 33.7 77.6 25.7 80.3 C19.3 83.2 15.7 87.6 13 94 C13.8 94.8 14.7 95.7 15.5 96.5 C18.5 100.7 18.2 102.9 18 108 C15.3 108.1 12.6 108.1 9.9 108.2 C8.4 108.2 6.9 108.3 5.4 108.3 C0.9 108 -2 107 -6 105 C-9.7 103.5 -9.7 103.5 -14 103 C-16.8 104.2 -19.6 105.5 -22.4 106.8 C-29.4 109.1 -36.8 108.4 -44 108 C-43.4 97.3 -43.4 97.3 -39 93 C-40.3 91.7 -41.7 90.3 -43.1 88.9 C-47 84.6 -47 84.6 -47.1 80 C-46 77 -46 77 -44 76 C-40.6 75.8 -37.3 75.6 -33.9 75.4 C-32 75.4 -30.2 75.3 -28.3 75.2 C-26.9 75.1 -25.5 75.1 -24 75 C-24 74.3 -24 73.7 -24 73 C-26 72.7 -28 72.3 -30 72 C-30 71.3 -30 70.7 -30 70 C-32 70 -34 70 -36 70 C-36.7 69.7 -37.3 69.3 -38 69 C-37.7 68.3 -37.3 67.7 -37 67 C-36.2 66.8 -36.2 66.8 -32 66 C-30 63 -30 63 -30 58 C-30.3 57 -30.7 56 -31 55 C-34.3 54 -37.7 53 -41 52 C-42 51 -43 50 -44 49 C-42.7 48.2 -41.5 47.4 -40.2 46.6 C-37.8 45.1 -35.4 43.6 -33 42 C-33.7 42.2 -33.7 42.2 -37 43 C-37 42 -37 41 -37 40 C-36.7 39.8 -36.7 39.8 -35 39 C-34.7 37.3 -34.3 35.7 -34 34 C-38 35 -38 35 -39.9 37.5 C-42 40 -42 40 -44.9 40.9 C-48 41 -48 41 -53 39 C-53 36 -53 36 -49 32 C-48.4 29.1 -48.4 29.1 -48.2 26 C-48.2 25 -48.1 23.9 -48.1 22.9 C-48 20.6 -48 18.3 -48 16 C-48 15.3 -48 14.7 -48 14 C-46.6 13.9 -45.3 13.7 -43.9 13.6 C-38.8 13 -34 12.2 -29 11 C-27.3 11 -25.7 11 -24 11 C-23.7 9.3 -23.3 7.7 -23 6 C-21 5.7 -19 5.3 -17 5 C-16.7 4 -16.3 3 -16 2 C-16 2.7 -16 3.3 -16 4 C-14 4 -12 4 -10 4 C-10 3.3 -10 2.7 -10 2 C-5 -1 -5 -1 0 0 Z " fill="#43546A" transform="translate(110,143)"/>
<path d="M0 0 C-2 4 -2 4 -6 8 C-5.8 12.6 -5.1 16.6 -4 21 C0.7 21.6 5.2 22 10 22 C10.7 20.3 11.3 18.7 12 17 C12.4 15.9 12.9 14.9 13.3 13.8 C14.3 8.6 12.8 4.9 11 0 C13.6 -0.3 16.3 -0.7 19 -1 C18.7 0.7 18.3 2.3 18 4 C18.3 4.5 18.3 4.5 20 7 C20 8 20 9 20 10 C23.3 9 26.6 8 30 7 C31 8.7 32 10.3 33 12 C33.3 12.3 33.3 12.3 35 14 C36 14 37 14 38 14 C38 13.3 38 12.7 38 12 C36.7 11.3 35.4 10.7 34 10 C33.7 9.7 33.7 9.7 32 8 C32 3 32 3 34 1 C37.1 1.4 37.1 1.4 40 2 C41 8.8 41 8.8 41 11 C42 10.7 43 10.3 44 10 C43 14 43 14 40.1 16.1 C36 18 36 18 30.6 19.5 C29.1 20 27.6 20.5 26 21 C25 25 25 25 25.1 29.4 C25 34 25 34 23 39 C11.5 38.2 11.5 38.2 7 36 C4.3 36.7 4.3 36.7 1.3 37.9 C-5.2 40.3 -10.3 40.2 -17 38 C-13.3 41.7 -11.5 41.6 -6.4 42.1 C0.9 42.9 0.9 42.9 2 44 C2.1 46.1 2.1 48.2 2.1 50.4 C2.1 51 2.1 51 2.1 53.9 C2 57 2 57 1 60 C-0.7 60.7 -2.3 61.3 -4 62 C-4 59 -4 56.1 -4 53 C-7.3 52.7 -10.6 52.3 -14 52 C-14.3 53 -14.7 54 -15 55 C-19 53 -19 53 -20 51 C-21 51.3 -22 51.7 -23 52 C-23.8 54.6 -23.8 54.6 -24.5 57.9 C-25.4 62.3 -25.7 63.7 -29 67 C-29.5 66.8 -29.5 66.8 -32 66 C-31.3 65 -30.7 64 -30 63 C-30 58 -30 58 -31 55 C-34.3 54 -37.7 53 -41 52 C-42 51 -43 50 -44 49 C-42.7 48.2 -41.5 47.4 -40.2 46.6 C-37.8 45.1 -35.4 43.6 -33 42 C-33.7 42.2 -33.7 42.2 -37 43 C-37 42 -37 41 -37 40 C-36.7 39.8 -36.7 39.8 -35 39 C-34.7 37.3 -34.3 35.7 -34 34 C-38 35 -38 35 -39.9 37.5 C-42 40 -42 40 -44.9 40.9 C-48 41 -48 41 -53 39 C-53 36 -53 36 -49 32 C-48.4 29.1 -48.4 29.1 -48.2 26 C-48.2 25 -48.1 23.9 -48.1 22.9 C-48 20.6 -48 18.3 -48 16 C-48 15.3 -48 14.7 -48 14 C-46.6 13.9 -45.3 13.7 -43.9 13.6 C-38.8 13 -34 12.2 -29 11 C-27.3 11 -25.7 11 -24 11 C-23.7 9.3 -23.3 7.7 -23 6 C-21 5.7 -19 5.3 -17 5 C-16.7 4 -16.3 3 -16 2 C-16 2.7 -16 3.3 -16 4 C-14 4 -12 4 -10 4 C-10 3.3 -10 2.7 -10 2 C-5 -1 -5 -1 0 0 Z " fill="#3C2B21" transform="translate(110,143)"/>
<path d="M0 0 C2.7 1.5 2.7 1.5 4.7 5.5 C6 6.1 7.3 6.8 8.7 7.5 C8.7 8.1 8.7 8.8 8.7 9.5 C10 10.1 11.3 10.8 12.7 11.5 C13.4 14.9 13.4 14.9 13.7 19.5 C13.8 21.3 13.9 23 14 24.9 C13.4 33.6 10.3 39.3 4 45.1 C-0.3 48.5 -0.3 48.5 -2.3 48.5 C-2.3 49.1 -2.3 49.8 -2.3 50.5 C-11.8 55.1 -19.1 54.9 -28.9 51.8 C-33.8 49.9 -37.3 47.7 -41.3 44.5 C-41.3 43.5 -41.3 42.5 -41.3 41.5 C-42.7 41.2 -44 40.8 -45.3 40.5 C-45.7 38.8 -45.7 38.8 -47.3 30.5 C-46.9 30.3 -46.9 30.3 -44.3 29.5 C-43.9 30.6 -43.5 31.6 -43 32.7 C-41.3 36.5 -41.3 36.5 -38.3 40.5 C-38.6 39.5 -38.8 38.4 -39 37.4 C-42.9 17.7 -42.9 17.7 -39.3 9.5 C-28.2 -4.2 -15.8 -6.1 0 0 Z " fill="#EAE9E5" transform="translate(79.34765625,38.515625)"/>
<path d="M0 0 C2.1 7 2.4 13.7 2.6 21 C2.7 22.2 2.7 23.3 2.7 24.5 C2.8 27.3 2.9 30.2 3 33 C3.7 33.2 3.7 33.2 7 34 C5.1 34.6 3.2 35.2 1.3 35.8 C-3.1 37.2 -6.7 38.5 -10 42 C-10.3 43 -10.7 44 -11 45 C-19.8 52.2 -26.7 54.1 -37.8 54.1 C-38.5 54.1 -38.5 54.1 -42.3 54.1 C-43 54.1 -43 54.1 -46.9 54.1 C-48.4 54.1 -50 54.1 -51.6 54 C-55.4 54 -59.2 54 -63 54 C-63 50.8 -63 47.5 -63.1 44.3 C-63.1 42.5 -63.1 40.7 -63.1 38.9 C-63 34 -63 34 -62 29 C-63.4 25.2 -63.4 25.2 -65 22 C-66.1 22 -67.1 22 -68.2 22 C-69.6 22 -71 22.1 -72.4 22.1 C-73.7 22.1 -75.1 22.1 -76.5 22.1 C-80 22 -80 22 -82 21 C-82 20.3 -82 19.7 -82 19 C-81 18.9 -80.1 18.8 -79.1 18.6 C-77.8 18.5 -76.6 18.3 -75.2 18.1 C-74 18 -72.7 17.8 -71.5 17.6 C-68 17 -68 17 -64 15 C-60.3 15.3 -56.7 15.6 -53 16 C-49.7 16 -46.3 16 -43 16 C-43 15.7 -43 15.3 -43 15 C-41.3 14.9 -39.6 14.8 -37.8 14.8 C-29.8 14.1 -20.9 12.9 -15 7 C-13.9 6.5 -12.8 6.1 -11.6 5.6 C-7.4 3.7 -4.6 0 0 0 Z " fill="#BC8B42" transform="translate(171,85)"/>
<path d="M0 0 C1.4 0.1 2.8 0.1 4.2 0.2 C7.8 0.8 7.8 0.8 11.8 4.8 C12.6 5.1 12.6 5.1 16.8 6.8 C16.8 7.5 16.8 8.1 16.8 8.8 C17.5 8.8 18.1 8.8 18.8 8.8 C18.8 9.5 18.8 10.1 18.8 10.8 C20.1 11.5 21.5 12.1 22.8 12.8 C23.8 13.8 24.8 14.8 25.8 15.8 C25.8 16.5 25.8 17.1 25.8 17.8 C26.8 18.1 27.8 18.5 28.8 18.8 C28.8 19.5 28.8 20.1 28.8 20.8 C29.8 20.8 30.8 20.8 31.8 20.8 C31.8 20.2 31.8 19.5 31.8 18.8 C33.1 18.2 34.5 17.5 35.8 16.8 C36.8 15.2 37.8 13.5 38.8 11.8 C41.1 9.6 41.1 9.6 43.6 7.6 C44.5 7 45.3 6.3 46.1 5.6 C52 1.7 56.4 1.7 63.2 2.6 C64.7 2.7 66.1 2.9 67.6 3.1 C71.5 3.8 75.1 4.7 78.8 5.8 C78.8 6.5 78.8 7.1 78.8 7.8 C80.5 8.5 82.1 9.1 83.8 9.8 C87.8 13.8 87.8 13.8 87.8 16.8 C83.8 14.8 83.8 14.8 80.5 12.8 C73.6 9.1 67.7 8.2 59.8 8.8 C51.6 11.3 46.2 16.4 40.8 22.8 C39.4 26.9 39.7 30.7 39.8 35 C39.8 36.6 39.8 38.3 39.8 40 C39.8 41.2 39.8 42.5 39.8 43.8 C40.5 43.8 41.1 43.8 41.8 43.8 C42 44.8 42 44.8 42.8 49.5 C44 54.5 44.5 55.6 48.6 58.9 C58.1 63.2 66.5 63.8 76.8 62.8 C82.2 60.3 82.2 60.3 85.8 57.8 C86.8 57.8 87.8 57.8 88.8 57.8 C88.2 59.5 87.5 61.1 86.8 62.8 C86.2 62.8 85.5 62.8 84.8 62.8 C84.8 63.5 84.8 64.1 84.8 64.8 C75.2 69.2 66.3 69.7 55.8 68.8 C54.2 68.2 52.5 67.5 50.8 66.8 C50.8 67.5 50.8 68.1 50.8 68.8 C43.9 68.3 38.8 64.9 34.1 59.9 C33.3 59.2 32.6 58.5 31.8 57.8 C26.5 59.1 23.9 62.2 19.8 65.8 C14.6 69.1 9.3 69.8 3.2 70.8 C2.3 70.9 2.3 70.9 -2.3 71.7 C-7.2 71.8 -7.2 71.8 -10.3 69.9 C-10.9 69.2 -11.6 68.5 -12.2 67.8 C-6.2 65.7 -0.4 64.1 5.8 62.8 C6.5 62.6 6.5 62.6 9.8 61.8 C9.8 61.2 9.8 60.5 9.8 59.8 C11 58.9 12.2 58 13.5 57.1 C19.3 52.7 22.1 48.6 24.8 41.8 C24.9 38.1 24.9 34.5 24.8 30.8 C24.8 29.4 24.8 28 24.8 26.5 C23.5 21.5 20.9 19.9 16.8 16.8 C15.5 15.5 14.2 14.2 12.8 12.8 C4.5 9.1 -3.6 6.7 -12.5 10.1 C-13.4 10.6 -14.3 11.2 -15.2 11.8 C-16.2 12.4 -17.2 13 -18.2 13.6 C-24 17.9 -26.7 21.3 -28.8 28.3 C-29.7 34.9 -28 40.4 -26 46.7 C-25.2 49.8 -25.2 49.8 -26.2 52.8 C-32.8 45.3 -34.6 37.7 -34.2 27.8 C-32.7 22.1 -31 18.3 -27.2 13.8 C-26.5 11.8 -25.8 9.8 -25.2 7.8 C-24.5 7.2 -23.9 6.5 -23.2 5.8 C-21.5 5.8 -19.9 5.8 -18.2 5.8 C-17.9 4.8 -17.5 3.8 -17.2 2.8 C-16.5 2.8 -15.9 2.8 -15.2 2.8 C-15.2 2.2 -15.2 1.5 -15.2 0.8 C-10 -0.1 -5.2 -0.3 0 0 Z " fill="#ABAAA5" transform="translate(67.1875,27.1875)"/>
<path d="M0 0 C0 0.7 0 1.3 0 2 C1.3 2.7 2.6 3.3 4 4 C8.2 7.7 9.4 10.6 9.9 15.9 C10.2 25.3 8.8 30.3 3 38 C-2.6 43.6 -10 47.3 -18 47.6 C-24.4 47.3 -28.6 45.4 -34 42 C-34.7 40.7 -35.3 39.4 -36 38 C-36.7 38 -37.3 38 -38 38 C-42 29.5 -42.5 21.2 -39.4 12.4 C-36.9 8.8 -34.8 7.2 -31 5 C-30.2 4.1 -29.3 3.3 -28.4 2.4 C-21.4 -4.5 -8.6 -3.3 0 0 Z " fill="#EEEDEA" transform="translate(149,41)"/>
<path d="M0 0 C0.7 1 1.3 2 2 3 C6.1 3.1 10 3 14.1 2.7 C15.3 2.6 16.4 2.6 17.6 2.5 C20.4 2.3 23.2 2.2 26 2 C26.4 12.7 23.7 22.5 16.6 30.7 C15.1 32.2 13.6 33.6 12 35 C11.1 35.9 10.2 36.8 9.2 37.8 C3.9 39.8 -1.6 38.5 -7 37 C-7.3 36.3 -7.7 35.7 -8 35 C-16 33.4 -20.6 34.9 -28 38 C-34.1 38.6 -35.6 38.2 -41 35 C-41.7 35 -42.3 35 -43 35 C-43.2 34.5 -43.2 34.5 -44 32 C-43.3 31 -42.7 30 -42 29 C-41.7 26.7 -41.6 24.3 -41.4 22 C-41.1 15.3 -41.1 15.3 -40 12 C-40.7 11.3 -41.3 10.7 -42 10 C-40.3 9.3 -38.7 8.7 -37 8 C-37 9.3 -37 10.6 -37 12 C-36 11.8 -36 11.8 -31.2 11 C-28.1 10.5 -25.2 10 -22 10 C-21.3 9 -20.7 8 -20 7 C-16.7 5.9 -13.4 4.9 -10 4 C-10.7 3.3 -11.3 2.7 -12 2 C-4.5 -1.1 -4.5 -1.1 0 0 Z " fill="#48607A" transform="translate(155,174)"/>
<path d="M0 0 C1 0 2 0 3 0 C9.9 6.1 15.5 13.6 21 21 C22.3 22.3 23.6 23.6 25 25 C26.1 28.3 26.1 28.3 27 32 C27.3 33.2 27.7 34.4 28 35.7 C30.9 46.9 31.8 57.6 32.2 69.1 C32.3 70 32.3 70 32.5 74.4 C33.1 89.6 33.1 89.6 33 95 C32 96 32 96 28.4 96.1 C27.3 96 26.2 96 25 96 C24 91 23.7 86.3 23.5 81.2 C23.2 75.1 22.8 69.1 22 63 C18 65.3 14 67.6 10 70 C5.3 72.8 1.2 74.3 -4 76 C-4.8 76.3 -4.8 76.3 -9 78 C-17.1 78.4 -23.2 77.7 -31 75 C-31 74 -31 73 -31 72 C-29.3 72.3 -27.7 72.7 -26 73 C-23.1 73.1 -20.1 73.2 -17.2 73.2 C-15.7 73.3 -14.1 73.3 -12.5 73.3 C-7.8 73 -4.4 71.8 0 70 C1 70 2 70 3 70 C3 69.3 3 68.7 3 68 C4 67 5 66 6 65 C6.3 64.3 6.7 63.7 7 63 C2.7 64.8 -1 66.6 -5 69 C-16.7 70.2 -26.1 69.4 -36.1 63 C-38 61 -38 61 -38 57 C-37.3 57 -36.7 57 -36 57 C-35.3 57.8 -34.6 58.5 -33.8 59.3 C-28.9 64 -25 64.9 -18.3 65.6 C-9.9 65.3 -2.9 61.9 3.1 55.9 C9.3 46.5 10 38.1 8 27 C8.7 27.3 9.3 27.7 10 28 C10.3 29.3 10.6 30.6 10.9 32 C11.3 33.3 11.6 34.6 12 36 C12.5 36.2 12.5 36.2 15 37 C12.1 25.5 9.1 15.5 -1.4 8.8 C-10.5 4.2 -21.6 5 -31.1 7.9 C-40.5 11 -40.5 11 -43 16 C-47 19 -47 19 -52 19 C-51.7 17.7 -51.3 16.4 -51 15 C-51 16 -51 17 -51 18 C-44.8 14.3 -39.3 9.7 -34.6 4.2 C-25.2 -3.7 -11.3 -1 0 0 Z " fill="#C4C3BB" transform="translate(149,22)"/>
<path d="M0 0 C0.3 0.3 0.3 0.3 2 2 C3.6 2.6 5.3 3.2 6.9 3.9 C12 6 12 6 15 10 C14.8 10.2 14.8 10.2 14 11 C10.7 10.9 7.4 10.7 4.1 10.4 C-3.7 10 -10.5 9.7 -18 12 C-18.7 13.3 -19.3 14.6 -20 16 C-22.2 18 -22.2 18 -24.9 20 C-28.2 22.5 -31 25 -34 28 C-35 28 -36 28 -37 28 C-36 23 -36 23 -35 22 C-36.4 21.6 -37.7 21.2 -39.1 20.8 C-44 19 -44 19 -46.8 16.5 C-55.4 9.7 -68.4 9.5 -79 10 C-79.2 10.5 -79.2 10.5 -80 13 C-82.5 14.4 -82.5 14.4 -85.7 15.9 C-97.1 21.3 -102.7 28.3 -107 40 C-107.7 42.3 -108.4 44.6 -109 47 C-109.7 47 -110.3 47 -111 47 C-112.1 42.1 -112 40.9 -110 36 C-110 34 -110 32 -110 30 C-107.6 26.8 -107.6 26.8 -104 23 C-102.6 21.2 -101.2 19.3 -99.8 17.5 C-93.8 10.2 -86.9 5.4 -78 2 C-76.6 1.3 -75.3 0.7 -73.9 0 C-51.3 -9.3 -22.6 -9 0 0 Z " fill="#F6D96A" transform="translate(135,12)"/>
<path d="M0 0 C0.3 0 0.7 0 1 0 C1.1 1.6 1.3 3.2 1.4 4.9 C2 10 2 10 3 12 C4 11.8 5 11.6 6.1 11.4 C7.4 11.2 8.7 11 10.1 10.8 C11.4 10.5 12.8 10.3 14.1 10 C18.8 10 20.4 11.2 24 14 C24.8 14.3 24.8 14.3 29 16 C29 17.7 29 19.3 29 21 C30.3 21.3 31.6 21.7 33 22 C33 22.6 33 22.6 32.8 25.6 C33 30.1 33.8 32.2 36 36 C36 36.7 36 37.3 36 38 C39 38 41.9 38 45 38 C44.7 39 44.3 40 44 41 C46 41.3 48 41.7 50 42 C50 42.7 50 43.3 50 44 C46.7 44.3 43.4 44.7 40.1 45 C38.3 45.2 36.5 45.4 34.6 45.6 C30 46 30 46 28 46 C28 47.7 28 49.3 28 51 C25 51 25 51 20 48 C17.3 47.1 14.6 46.2 11.9 45.3 C-0.4 41 -11.1 33.9 -17.5 22.2 C-20.5 16 -23 10 -23 3 C-20.6 3.1 -18.3 3.2 -15.9 3.4 C-14.6 3.4 -13.3 3.5 -12 3.6 C-8.1 4 -4.7 4.8 -1 6 C-0.7 4 -0.3 2 0 0 Z " fill="#566B82" transform="translate(36,174)"/>
<path d="M0 0 C1.3 1 2.6 2 4 3 C4 3.7 4 4.3 4 5 C6 5 8 5 10 5 C13.8 9.4 13.8 9.4 17 14 C17.7 14.3 18.3 14.7 19 15 C19 15.7 19 16.3 19 17 C20.6 17.7 22.3 18.3 24 19 C28.1 21.2 32.1 23.4 36 26 C36 26.7 36 27.3 36 28 C31.6 27.1 28.1 25.8 24 24 C31.9 36.1 31.9 36.1 39 38 C38.7 39 38.3 40 38 41 C35 41.7 32 42.3 29 43 C24.6 45.4 23.3 46.5 21 51 C21 53 21 55 21 57 C22 58 23 59 24 60 C27 65 27 65 28 67 C21 65.3 15.3 60 9.6 55.8 C4.3 52.6 -0.1 51.4 -6 50 C-6.3 49.7 -6.7 49.3 -7 49 C-6.9 44.9 -6.8 40.8 -6.6 36.6 C-6.6 35.4 -6.5 34.2 -6.5 32.9 C-6.1 24.1 -5.7 15.2 -5.2 6.4 C-5.1 4.6 -5 2.8 -5 1 C-3.3 0.7 -1.7 0.3 0 0 Z " fill="#F5D768" transform="translate(19,71)"/>
<path d="M0 0 C2 7.9 1.7 17 0 25 C-0.2 25.2 -0.2 25.2 -1 26 C-1.4 29 -1.7 32 -2.1 35.1 C-2.2 36.7 -2.4 38.4 -2.6 40.1 C-2.7 41.4 -2.9 42.7 -3 44 C-7.9 45 -12.6 45.5 -17.6 45.8 C-19.3 45.9 -21 46.1 -22.7 46.2 C-24.1 46.1 -25.5 46.1 -27 46 C-28 44.7 -29 43.4 -30 42 C-33.8 42.5 -37 43.3 -40.6 44.6 C-45 46 -45 46 -49 45 C-50 35.8 -50 35.8 -50 33 C-46.8 29.8 -42.5 29.3 -38.2 28.1 C-34 26.7 -31.6 25.1 -29.6 21.2 C-24.9 11.8 -10.7 0 0 0 Z " fill="#CEA842" transform="translate(184,132)"/>
<path d="M0 0 C11.9 2.5 21.9 10 30 19 C30.9 23.4 30.9 23.4 31 27 C31.9 26.5 32.9 26.1 33.8 25.6 C37 24 37 24 40 23 C40 22.3 40 21.7 40 21 C41 21 42 21 43 21 C42.7 23.3 42.3 25.6 42 28 C39 28 39 28 37 27 C35.9 29.6 34.9 32.3 34 35 C33 35.2 33 35.2 28 36 C27.3 39.6 26.7 43.3 26 47 C23 48 23 48 18 46 C15.6 45.6 13.2 45.2 10.8 44.9 C4.1 44.1 4.1 44.1 3 43 C2.9 41.9 2.8 40.9 2.7 39.8 C2 36 2 36 0.1 33.6 C-4.7 27.6 -4.5 19.4 -4 12 C-2.9 7.9 -1.5 4 0 0 Z " fill="#F1D46B" transform="translate(10,133)"/>
<path d="M0 0 C3 1.7 3 1.7 5.9 3.9 C6.4 4.2 6.4 4.2 8.8 6 C9.5 6.7 10.3 7.3 11 8 C11 9 11 10 11 11 C13 11 15 11 17 11 C20.8 12.1 24.6 13.2 28.4 14.5 C29.4 14.8 30.4 15.2 31.5 15.5 C34 16.3 36.5 17.2 39 18 C40 23 40 23 38.4 26.1 C34.3 31.1 31.5 33.2 25 34 C22.4 34.1 19.8 34.1 17.2 34.1 C16.5 34.1 16.5 34.1 12.7 34.1 C11.2 34.1 9.7 34.1 8.1 34.1 C6.6 34.1 5 34.1 3.4 34 C-0.4 34 -4.2 34 -8 34 C-8 30.8 -8 27.5 -8.1 24.3 C-8.1 23.4 -8.1 23.4 -8.1 18.9 C-8 14 -8 14 -7 9 C-7.3 6 -7.6 3 -8 0 C-5 -1.5 -3.2 -0.8 0 0 Z " fill="#E5C156" transform="translate(116,105)"/>
<path d="M0 0 C-0.3 1.7 -0.7 3.3 -1 5 C-0.3 6 0.3 7 1 8 C1 9 1 10 1 11 C4.3 10 7.6 9 11 8 C12 9.7 13 11.3 14 13 C14.7 13.7 15.3 14.3 16 15 C17 15 18 15 19 15 C19 14.3 19 13.7 19 13 C17.7 12.3 16.4 11.7 15 11 C14.3 10.3 13.7 9.7 13 9 C13 4 13 4 15 2 C18.1 2.4 18.1 2.4 21 3 C22 9.8 22 9.8 22 12 C23 11.7 24 11.3 25 11 C24 15 24 15 21.1 17.1 C17 19 17 19 11.6 20.5 C10.1 21 8.6 21.5 7 22 C6 26 6 26 6.1 30.4 C6 35 6 35 4 40 C-7.5 39.2 -7.5 39.2 -12 37 C-14.7 37.7 -14.7 37.7 -17.7 38.9 C-23.2 40.9 -27.2 41.5 -33 40 C-36.1 37.4 -36.1 37.4 -38 35 C-37.3 33 -36.7 31 -36 29 C-32 30.1 -28.7 31.2 -25 33 C-23.7 33 -22.4 33 -21 33 C-23 28 -23 28 -24 27 C-27.3 26.5 -30.7 26 -34 25.6 C-37 25 -37 25 -39 23 C-38 18 -38 18 -37 17 C-30.7 17.3 -27.8 18.1 -23 22 C-18.2 22.8 -13.8 23 -9 23 C-8.3 21.3 -7.7 19.7 -7 18 C-6.6 16.9 -6.1 15.9 -5.7 14.8 C-4.7 9.6 -6.2 5.9 -8 1 C-4 0 -4 0 0 0 Z " fill="#313334" transform="translate(129,142)"/>
<path d="M0 0 C2.4 1.8 2.4 1.8 3.4 5.8 C4.7 6.4 6 7.1 7.4 7.8 C9.6 13.1 11 17.1 9.4 22.8 C9 23.4 8.7 24.1 8.4 24.8 C7.7 24.8 7.1 24.8 6.4 24.8 C6.3 23.5 6.3 22.3 6.2 21.1 C5.3 16.2 4 14.9 0.4 11.8 C0.4 11.1 0.4 10.4 0.4 9.8 C-8.2 10.4 -8.2 10.4 -11.6 13.8 C-12.3 13.8 -12.9 13.8 -13.6 13.8 C-14 23.1 -14 23.1 -10.6 28.8 C-6.9 31.2 -4.1 31.4 0.4 31.8 C1.4 31.4 2.4 31.1 3.4 30.8 C3.5 30.3 3.5 30.3 4.4 27.8 C5 27.8 5.7 27.8 6.4 27.8 C5.4 32.8 5.4 32.8 2.4 36.8 C-4.5 39.4 -10.9 40.9 -18.2 41 C-19.4 41 -20.5 41.1 -21.7 41.1 C-24.6 40.8 -24.6 40.8 -27.6 37.8 C-29 34.8 -30.3 31.8 -31.6 28.8 C-32.3 27.4 -32.9 26.1 -33.6 24.8 C-33.7 21.4 -33.7 18.1 -33.6 14.8 C-32.6 14.4 -31.6 14.1 -30.6 13.8 C-30.3 12.4 -30 11.1 -29.6 9.8 C-23.7 -0.5 -10.8 -3.7 0 0 Z " fill="#FAFAF8" transform="translate(75.625,41.25)"/>
<path d="M0 0 C1 -0.3 2 -0.7 3 -1 C3.7 -0 4.3 1 5 2 C3.8 2.4 2.5 2.9 1.3 3.3 C-0.3 3.9 -2 4.5 -3.6 5.1 C-5.2 5.7 -6.8 6.3 -8.5 6.9 C-15.3 10.1 -19.1 14.1 -22 21 C-21.2 21.8 -20.3 22.7 -19.5 23.5 C-16.5 27.7 -16.8 29.9 -17 35 C-27.3 35.4 -35.5 35.3 -45 31 C-44.9 27.9 -44.9 24.9 -44.8 21.8 C-45 19 -45 19 -47 17 C-47.3 7.7 -47.3 7.7 -46 5 C-43.4 4.5 -43.4 4.5 -40 4.1 C-33.2 3.1 -27.2 1.2 -20.8 -1.2 C-13.7 -2.7 -6.5 -3.2 0 0 Z " fill="#242A32" transform="translate(145,216)"/>
<path d="M0 0 C0.7 1 1.3 2 2 3 C6.1 3.1 10 3 14.1 2.7 C15.3 2.6 16.4 2.6 17.6 2.5 C20.4 2.3 23.2 2.2 26 2 C26.4 12.9 23.6 22.7 16.4 30.9 C12 35 12 35 9 35 C9 33.7 9 32.4 9 31 C7.7 32 6.4 33 5 34 C1.4 34.2 1.4 34.2 -2 34 C-3 34 -4 34 -5 34 C-5.2 33.5 -5.2 33.5 -6 31 C-8 31 -10 31 -12 31 C-15.9 28.5 -15.9 28.5 -19 26 C-18 24 -18 24 -14 22 C-13.3 21 -12.7 20 -12 19 C-8.4 18.8 -8.4 18.8 -5 19 C-2.8 13.5 -3.1 10.7 -4 5 C-6.6 4.3 -9.3 3.7 -12 3 C-4 -1 -4 -1 0 0 Z " fill="#576A7E" transform="translate(155,174)"/>
<path d="M0 0 C1.2 4.8 2 9 2 14 C0.5 14.5 -0.9 15 -2.4 15.6 C-10.5 18.8 -23 26.9 -27 35 C-28.7 35.7 -30.3 36.3 -32 37 C-32 33.7 -32 30.3 -32 27 C-34 27 -36 27 -38 27 C-38.2 27.2 -38.2 27.2 -39 28 C-39 29.7 -39 31.3 -39 33 C-36.5 35.2 -36.5 35.2 -34 37 C-34 37.7 -34 38.3 -34 39 C-34.7 39.2 -34.7 39.2 -38 40 C-42 35.4 -42 35.4 -42 32 C-43.1 32.5 -44.2 33 -45.3 33.5 C-49 35 -49 35 -52 35 C-53.6 31.8 -53.6 31.8 -55 28 C-54.3 26.7 -53.7 25.4 -53 24 C-54.3 24.2 -54.3 24.2 -61 25 C-60.5 26.1 -60 27.2 -59.4 28.3 C-58 32 -58 32 -59 35 C-59.7 34.1 -60.4 33.1 -61.2 32.1 C-64 29 -64 29 -69 27 C-69.3 25.7 -69.7 24.4 -70 23 C-71.3 22.3 -72.6 21.7 -74 21 C-73.1 21 -72.1 21 -71.1 20.9 C-66.8 20.8 -62.5 20.7 -58.1 20.6 C-56.6 20.6 -55.1 20.6 -53.6 20.5 C-32.3 20 -32.3 20 -24 12 C-23.3 12 -22.7 12 -22 12 C-21.7 10.7 -21.3 9.4 -21 8 C-16 2.5 -7.2 0 0 0 Z " fill="#54677B" transform="translate(182,118)"/>
<path d="M0 0 C1.3 0 2.5 0 3.9 0 C4.3 0 4.3 0 6.8 0.1 C7.1 1.1 7.5 2 7.8 3.1 C9.1 3.7 10.5 4.4 11.8 5.1 C12.5 6.7 13.1 8.4 13.8 10.1 C14.8 10.7 15.8 11.4 16.8 12.1 C17.3 19.3 17.3 23.7 13.8 30.1 C13.4 31.1 12.9 32.1 12.4 33.2 C12 34.2 11.5 35.2 11 36.2 C10.5 37.3 10.1 38.3 9.6 39.4 C7.4 42.7 5.5 43.6 1.8 45.1 C-4.4 46.2 -7.9 46.6 -13.7 44 C-17.1 41.1 -18.6 39.2 -20.2 35.1 C-16.3 32.5 -13.8 33.1 -9.2 33.1 C-5.9 32.4 -5.9 32.4 -3.2 31.1 C-0.2 26.1 0.2 25.1 0 19.8 C-0.1 17.9 -0.1 16 -0.2 14.1 C-1.2 13.8 -2.1 13.5 -3.1 13.2 C-4.1 12.9 -5.1 12.5 -6.2 12.1 C-6.5 11.1 -6.8 10.1 -7.2 9.1 C-8.8 8.7 -10.5 8.4 -12.2 8.1 C-11.2 3.1 -11.2 3.1 -10.2 1.1 C-6.6 -0.1 -3.7 -0 0 0 Z " fill="#FAFBF8" transform="translate(135.1875,38.9375)"/>
<path d="M0 0 C1.3 0.3 2.6 0.7 4 1 C3 1.3 2 1.7 1 2 C1.2 2.9 1.4 3.9 1.6 4.8 C2 8 2 8 1 11 C1.7 11 2.3 11 3 11 C2.3 12.3 1.7 13.6 1 15 C0 15.3 -1 15.7 -2 16 C-1.2 16.7 -0.3 17.4 0.5 18.1 C3 21 3 21 3 27 C-1.9 29.5 -4.6 28.8 -10 28 C-12 28 -12 28 -14.6 30.3 C-17 33 -17 33 -18 36 C-19 35.3 -20 34.7 -21 34 C-25 38.6 -25 38.6 -25 42 C-25.5 42.2 -25.5 42.2 -28 43 C-27.7 41.7 -27.3 40.4 -27 39 C-27.7 39 -28.3 39 -29 39 C-29 40 -29 41 -29 42 C-32 44 -32 44 -35 44 C-34.7 45 -34.3 46 -34 47 C-33.3 47.3 -32.7 47.7 -32 48 C-32.3 49.7 -32.7 51.3 -33 53 C-33 54 -33 55 -33 56 C-33.5 56.2 -33.5 56.2 -36 57 C-36 58.7 -36 60.3 -36 62 C-36.7 62.2 -36.7 62.2 -40 63 C-42.8 65.6 -42.8 65.6 -45 68 C-49 66 -49 66 -52 61 C-51 60.8 -51 60.8 -46 60 C-45.7 58.7 -45.3 57.4 -45 56 C-44.3 54.7 -43.7 53.4 -43 52 C-41.7 52.3 -40.4 52.7 -39 53 C-38.7 51.3 -38.3 49.7 -38 48 C-37.7 47.3 -37.3 46.7 -37 46 C-38.5 46.2 -38.5 46.2 -46 47 C-48 44 -48 44 -48 39 C-47.3 38.3 -46.7 37.7 -46 37 C-45 37 -44 37 -43 37 C-42 38 -41 39 -40 40 C-35.8 39.7 -35.8 39.7 -32 39 C-32 36.4 -32 33.7 -32 31 C-29.3 31 -26.6 31 -23.9 31.1 C-20 31 -20 31 -18 29 C-18 27.3 -18 25.7 -18 24 C-19.3 22.7 -20.6 21.4 -22 20 C-22 19.3 -22 18.7 -22 18 C-20 17 -18 16 -16 15 C-16.1 13.6 -16.1 12.1 -16.2 10.6 C-16.2 9.9 -16.2 9.9 -16 6 C-15 5.3 -14 4.7 -13 4 C-13 6 -13 8 -13 10 C-12.3 10 -11.7 10 -11 10 C-10.7 8.7 -10.3 7.4 -10 6 C-8.3 6 -6.7 6 -5 6 C-5 5 -5 4 -5 3 C-5.7 3.3 -6.3 3.7 -7 4 C-7 3 -7 2 -7 1 C-4.7 1.3 -2.4 1.7 0 2 C0 1.3 0 0.7 0 0 Z " fill="#885736" transform="translate(90,108)"/>
<path d="M0 0 C1 0.3 2 0.7 3 1 C3 1.7 3 2.3 3 3 C4 3 5 3 6 3 C7.1 8.6 7.1 8.6 6 12 C5.8 15.6 5.6 19.1 5.4 22.7 C5.4 24.6 5.3 26.5 5.2 28.5 C5.2 29.3 5.2 29.3 5 33 C7.3 33 9.6 33 12 33 C12 33.3 12 33.7 12 34 C9.4 34 6.7 34 4 34 C2.8 30.5 2.9 27.6 3 24 C2 23.7 1 23.3 0 23 C0.3 22.3 0.7 21.7 1 21 C-0.7 22 -2.3 23 -4 24 C-3.8 24.8 -3.8 24.8 -3 29 C-5 31 -5 31 -8.1 31.9 C-9 32.3 -10 32.6 -11 33 C-11.3 34 -11.7 35 -12 36 C-12.7 36.2 -12.7 36.2 -16 37 C-16.3 38.7 -16.7 40.3 -17 42 C-19 42.7 -21 43.3 -23 44 C-23 43 -23 42 -23 41 C-22 40.7 -21 40.3 -20 40 C-18.8 35.9 -18.8 35.9 -18 32 C-19.7 32.7 -21.3 33.3 -23 34 C-23 33.3 -23 32.7 -23 32 C-23.7 32 -24.3 32 -25 32 C-24.8 32.8 -24.8 32.8 -24 37 C-26.3 37.7 -28.6 38.3 -31 39 C-30.3 40.3 -29.7 41.6 -29 43 C-29.7 43.7 -30.3 44.3 -31 45 C-32.3 45 -33.6 45 -35 45 C-35.7 46 -36.3 47 -37 48 C-38.7 48 -40.3 48 -42 48 C-42.3 47.7 -42.7 47.3 -43 47 C-42.7 48.3 -42.3 49.6 -42 51 C-41.9 54.7 -41.9 58.3 -42 62 C-42.7 62.7 -43.3 63.3 -44 64 C-45 64 -46 64 -47 64 C-46.7 65.7 -46.3 67.3 -46 69 C-50 71 -50 71 -55 71 C-56 70 -57 69 -58 68 C-56.4 66 -54.7 64 -53 62 C-51.7 62.3 -50.4 62.7 -49 63 C-49 61.3 -49 59.7 -49 58 C-48 57 -47 56 -46 55 C-46 54 -46 53 -46 52 C-45.7 51 -45.3 50 -45 49 C-46 48.7 -47 48.3 -48 48 C-48 47 -48 46 -48 45 C-46 44.3 -44 43.7 -42 43 C-42 42 -42 41 -42 40 C-41.3 40 -40.7 40 -40 40 C-40.3 41.3 -40.7 42.6 -41 44 C-40 43.3 -39 42.7 -38 42 C-38 41 -38 40 -38 39 C-35.5 36.3 -35.5 36.3 -33 34 C-32.3 34.7 -31.7 35.3 -31 36 C-30.7 34.7 -30.3 33.4 -30 32 C-28.7 31 -27.4 30 -26 29 C-25.3 28 -24.7 27 -24 26 C-23.8 26.3 -23.8 26.3 -23 28 C-18.2 28.8 -14.7 29.2 -10 28 C-10.9 24.6 -11.9 21.3 -13 18 C-14.3 17.3 -15.6 16.7 -17 16 C-16 15.7 -15.1 15.4 -14.1 15.1 C-11 14 -11 14 -10 12 C-10.7 12 -11.3 12 -12 12 C-12 9 -12 6.1 -12 3 C-4.4 0.9 -4.4 0.9 -1 2 C-0.7 1.3 -0.3 0.7 0 0 Z " fill="#75472B" transform="translate(103,107)"/>
<path d="M0 0 C0.3 0 0.7 0 1 0 C1 2.3 1 4.7 1 7 C0.7 7.3 0.3 7.7 0 8 C-1.6 8 -3.3 8 -5 8 C-4.7 10 -4.3 12 -4 14 C-3 14.3 -2 14.7 -1 15 C-1 16.7 -1 18.3 -1 20 C0.3 19 1.6 18 3 17 C3.7 17 4.3 17 5 17 C7 20 9 23 11 26 C12.3 27.3 13.6 28.6 15 30 C14.7 31.7 14.3 33.3 14 35 C15 36 16 37 17 38 C17 38.7 17 39.3 17 40 C15.9 40.5 14.8 40.9 13.6 41.4 C11.7 42.3 9.8 43.1 8 44 C-4.2 39 -13.1 30.8 -19 19 C-21.1 13.7 -23 8.8 -23 3 C-20.6 3.1 -18.3 3.2 -15.9 3.4 C-14.6 3.4 -13.3 3.5 -12 3.6 C-8.1 4 -4.7 4.8 -1 6 C-0.7 4 -0.3 2 0 0 Z " fill="#648195" transform="translate(36,174)"/>
<path d="M0 0 C0.7 0.3 1.3 0.7 2 1 C6.4 1.3 10.8 1.5 15.3 1.7 C19 2 19 2 20 3 C20.2 7.9 20.2 7.9 20 13 C19.3 13.7 18.7 14.3 18 15 C17.8 17.8 17.8 17.8 17.9 21.1 C17.9 23.1 18 25 18 27 C8.8 31.8 0.2 31.4 -10 31 C-9.4 20.3 -9.4 20.3 -5 16 C-5.7 15.3 -6.3 14.7 -7 14 C-6.7 12.3 -6.3 10.7 -6 9 C-7 7.7 -8 6.4 -9 5 C-9 3.7 -9 2.4 -9 1 C-6 0 -6 0 0 0 Z " fill="#242931" transform="translate(76,220)"/>
<path d="M0 0 C1 0.3 2 0.7 3 1 C1 5 1 5 -3 9 C-2.8 13.3 -2.4 16.9 -1 21 C-1.8 20.7 -1.8 20.7 -6 19 C-9 18.6 -12 18.3 -15 18 C-15.3 19.7 -15.7 21.3 -16 23 C-12 25 -12 25 -7 25.3 C-2 26 -2 26 0.7 28.4 C1.1 29.2 1.6 30.1 2 31 C1.7 32 1.3 33 1 34 C-4 33.5 -7.6 32.4 -12 30 C-13.3 29.7 -14.6 29.3 -16 29 C-17 28 -18 27 -19 26 C-19.8 26.2 -19.8 26.2 -24 27 C-24.2 31.9 -23.6 35.4 -22 40 C-22 46 -22 46 -25 50 C-24.3 49.8 -24.3 49.8 -21 49 C-21.3 50.3 -21.7 51.6 -22 53 C-28.4 52.6 -28.4 52.6 -31.4 49.4 C-32 48.6 -32.5 47.8 -33 47 C-32 46.4 -31.1 45.8 -30.1 45.2 C-27 43 -27 43 -26 39 C-27.5 36.2 -27.5 36.2 -30 34 C-34.4 33.9 -36.6 34.7 -40.2 37.1 C-40.7 37.4 -40.7 37.4 -43 39 C-44.3 38.7 -45.6 38.3 -47 38 C-45 34 -45 34 -42 32.7 C-41.4 32.6 -41.4 32.6 -38.4 31.8 C-37.2 31.4 -36 31.1 -34.8 30.7 C-33.9 30.5 -32.9 30.2 -32 30 C-31.4 27.1 -31.4 27.1 -31 24 C-31.7 23.3 -32.3 22.7 -33 22 C-35 22 -37 22 -39 22 C-39.3 23.2 -39.3 23.2 -41 29 C-41.7 29 -42.3 29 -43 29 C-42.3 24.5 -41.3 20.3 -40 16 C-38.1 15.9 -36.2 15.8 -34.2 15.8 C-21.1 14.7 -9 9.9 0 0 Z " fill="#1B1919" transform="translate(107,142)"/>
<path d="M0 0 C5.1 1.4 8.5 3.6 12.6 6.8 C13.1 7.2 13.1 7.2 15.9 9.4 C23.8 16 23.8 16 24.8 21.3 C24.9 22.5 24.9 23.7 25 25 C25.9 24.5 26.9 24.1 27.8 23.6 C31 22 31 22 34 21 C34 20.3 34 19.7 34 19 C35 19 36 19 37 19 C36.7 21.3 36.3 23.6 36 26 C33 26 33 26 31 25 C29.9 27.6 28.9 30.3 28 33 C27 33.1 26.1 33.2 25.1 33.4 C24.1 33.6 23 33.8 22 34 C21.7 34.7 21.3 35.3 21 36 C21 34.7 21 33.4 21 32 C19.4 31.7 17.7 31.3 16 31 C8.1 27 1.7 22.2 -2 14 C-3 9.6 -3.1 7.4 -2 3 C-1.3 2.7 -0.7 2.3 0 2 C0 1.3 0 0.7 0 0 Z " fill="#E5C25B" transform="translate(16,135)"/>
<path d="M0 0 C0.7 0.7 1.3 1.3 2 2 C1.7 3.7 1.3 5.3 1 7 C1 7.7 1 8.3 1 9 C2.7 8.7 4.3 8.3 6 8 C6 9.7 6 11.3 6 13 C4.7 12.7 3.4 12.3 2 12 C1.3 12.3 1.3 12.3 -2 14 C-6 16 -6 16 -9 16 C-9.7 17.3 -10.3 18.6 -11 20 C-20.1 25 -20.1 25 -23 25 C-23 25.7 -23 26.3 -23 27 C-28 29 -32.6 30.6 -38 31 C-40.4 28.6 -39.7 24.1 -40 20.8 C-40 18 -40 18 -38 16 C-36 15.3 -34 14.7 -32 14.2 C-25.9 12.4 -20.6 9.9 -15 7 C-11.9 5.7 -8.7 4.4 -5.6 3.1 C-3 2 -3 2 0 0 Z " fill="#E5C057" transform="translate(174,147)"/>
<path d="M0 0 C0 0.3 0 0.7 0 1 C-1.1 0.9 -2.1 0.8 -3.2 0.7 C-11.2 -0 -17.5 -0.4 -25 3 C-26.4 3.5 -27.8 4 -29.3 4.6 C-34.3 7.9 -35.2 11.4 -37 17 C-37.3 17.7 -37.7 18.3 -38 19 C-38.5 26.4 -38.7 34.1 -36 41 C-28.7 46 -21.8 48.9 -13 48 C-5.5 45.6 1.2 42.4 7 37 C10.9 28.4 10.2 18.2 9 9 C10 9.7 11 10.3 12 11 C12.7 14.4 12.7 14.4 13 19 C13.1 20.8 13.2 22.5 13.4 24.4 C12.8 33.1 9.7 38.8 3.3 44.6 C-1 48 -1 48 -3 48 C-3 48.7 -3 49.3 -3 50 C-12.5 54.6 -19.8 54.4 -29.6 51.3 C-34.4 49.5 -38 47.2 -42 44 C-42 43 -42 42 -42 41 C-43.3 40.7 -44.6 40.3 -46 40 C-46.3 38.3 -46.3 38.3 -48 30 C-47.5 29.8 -47.5 29.8 -45 29 C-44.6 30.1 -44.1 31.1 -43.7 32.2 C-42 36 -42 36 -39 40 C-39.2 39 -39.4 38 -39.6 36.9 C-43.5 17.3 -43.5 17.3 -40 9 C-28.6 -5 -15.9 -6.6 0 0 Z " fill="#A5A5A0" transform="translate(80,39)"/>
<path d="M0 0 C2 0 4 0 6 0 C5.2 1.2 4.4 2.4 3.6 3.6 C-1.4 12.1 -1.2 19.4 -1 29 C-1.7 29 -2.3 29 -3 29 C-2.3 30.3 -1.7 31.6 -1 33 C-1 35 -1 37 -1 39 C0.3 39.3 1.6 39.7 3 40 C3.7 41.3 4.3 42.6 5 44 C10.3 47.1 15.2 49.2 21.1 50.7 C22.7 51.1 24.3 51.6 26 52 C26.3 52.7 26.7 53.3 27 54 C26 54.2 26 54.2 21 55 C21 56.3 21 57.6 21 59 C19.7 58 18.4 57 17 56 C15.2 55 13.3 53.9 11.4 52.9 C8.5 51.4 5.8 49.8 3 48 C3 47.3 3 46.7 3 46 C1.7 45.3 0.4 44.7 -1 44 C-1.8 42.8 -2.6 41.6 -3.4 40.4 C-6 37 -6 37 -9.1 36.3 C-9.5 36.3 -9.5 36.3 -12 36 C-13.3 34.7 -14.6 33.4 -16 32 C-17.6 32 -19.3 32 -21 32 C-20.2 29.1 -19.4 26.1 -18.6 23.2 C-18.2 21.6 -17.7 19.9 -17.3 18.2 C-16 14 -16 14 -14 11 C-13.3 8.7 -12.6 6.3 -12 4 C-11 4 -10 4 -9 4 C-9.1 4.8 -9.3 5.6 -9.4 6.4 C-10.1 10.6 -10.6 14.8 -11 19 C-10.3 19 -9.7 19 -9 19 C-8.3 17.4 -7.7 15.7 -7 14 C-4.3 8.3 -4.3 8.3 -2 6 C-1.3 4 -0.6 2 0 0 Z " fill="#AAA8A3" transform="translate(35,40)"/>
<path d="M0 0 C4 1 4 1 7.6 4.3 C13.8 9.5 19.9 11.4 27.6 13.6 C28.3 13.8 28.3 13.8 32 15 C32.2 15.5 32.2 15.5 33 18 C27.2 18.1 21.8 18 16.1 17.4 C11 17 11 17 7 19 C3.9 19.4 3.9 19.4 0.4 19.7 C-0.7 19.8 -1.8 19.9 -3 19.9 C-6 20 -6 20 -9 19 C-12.7 19 -16.3 19 -20 19 C-30.6 19.1 -30.6 19.1 -34 18 C-34 16.7 -34 15.4 -34 14 C-32.7 13.8 -31.4 13.7 -30.1 13.5 C-28.4 13.2 -26.7 13 -24.9 12.8 C-23.3 12.5 -21.6 12.3 -19.8 12 C-12.9 10.5 -9 7.9 -3.8 3.2 C-2.6 2.1 -1.3 1.1 0 0 Z " fill="#78482B" transform="translate(96,84)"/>
<path d="M0 0 C12.9 0.8 23.8 8.2 33 17 C33.7 18.7 34.3 20.3 35 22 C33.7 23.3 32.4 24.6 31 26 C31 31 31 31 32 34 C33 33.8 33 33.8 38 33 C38 33.7 38 34.3 38 35 C32.7 39 32.7 39 29 39 C28.8 38.3 28.8 38.3 28.1 35 C24.1 25.5 14.8 19.8 6 15 C3.7 14.3 1.4 13.6 -1 13 C-3 9.1 -0.8 4.1 0 0 Z " fill="#91A1A7" transform="translate(12,121)"/>
<path d="M0 0 C3.5 0.5 6.7 0.9 10 2 C10.7 3.3 11.3 4.6 12 6 C18.3 13.5 27.7 17.5 37 20 C37 20.3 37 20.7 37 21 C26.2 21.1 26.2 21.1 24 20 C24 20.7 24 21.3 24 22 C17.1 21.5 12 18.1 7.2 13.1 C6.5 12.4 5.8 11.7 5 11 C-0.3 12.3 -2.9 15.4 -7 19 C-12.2 22.2 -17.5 23 -23.6 23.9 C-25.4 24.2 -27.2 24.5 -29.1 24.8 C-34 25 -34 25 -37.2 23.1 C-37.8 22.4 -38.4 21.7 -39 21 C-33 18.9 -27.2 17.3 -21 16 C-19.7 15.7 -18.4 15.3 -17 15 C-17 14.3 -17 13.7 -17 13 C-16.5 12.8 -16.5 12.8 -13.8 11.7 C-10 10 -10 10 -6 7 C-5.7 6 -5.3 5 -5 4 C-4 3.7 -3 3.3 -2 3 C-1.3 2 -0.7 1 0 0 Z " fill="#9F9E9A" transform="translate(94,74)"/>
<path d="M0 0 C3 1.7 3 1.7 5.9 3.9 C6.4 4.2 6.4 4.2 8.8 6 C9.5 6.7 10.3 7.3 11 8 C11 9 11 10 11 11 C13 11 15 11 17 11 C20.8 12.1 24.6 13.2 28.4 14.5 C29.4 14.8 30.4 15.2 31.5 15.5 C34 16.3 36.5 17.2 39 18 C40 23 40 23 38.4 26.1 C34.3 31.1 31.5 33.2 25 34 C22.4 34.1 19.8 34.1 17.2 34.1 C16.5 34.1 16.5 34.1 12.7 34.1 C11.2 34.1 9.7 34.1 8.1 34.1 C6.6 34.1 5 34.1 3.4 34 C-0.4 34 -4.2 34 -8 34 C-8 30.8 -8 27.5 -8.1 24.3 C-8.1 23.4 -8.1 23.4 -8.1 18.9 C-8 14 -8 14 -7 9 C-7.3 6 -7.6 3 -8 0 C-5 -1.5 -3.2 -0.8 0 0 Z M4 16.4 C0.2 18.2 -2.8 19.2 -7 20 C-7 23.6 -7 27.3 -7 31 C2.6 35.8 17.6 33.3 28 32 C31 30 31 30 33 26 C32.8 25.3 32.8 25.3 32 22 C27.9 20 27.9 20 23 18 C21.6 17.3 20.2 16.5 18.8 15.8 C13 13.1 9.5 14 4 16.4 Z " fill="#CDA745" transform="translate(116,105)"/>
<path d="M0 0 C3.6 1.4 3.6 1.4 5.6 3.4 C7.3 4.1 8.9 4.7 10.6 5.3 C15.6 7.4 15.6 7.4 18.6 11.4 C18.5 11.6 18.5 11.6 17.6 12.4 C14.3 12.3 11 12.1 7.8 11.9 C-0.1 11.5 -6.9 11.2 -14.4 13.4 C-15 14.8 -15.7 16.1 -16.4 17.4 C-18.6 19.4 -18.6 19.4 -21.2 21.4 C-24.6 24 -27.4 26.4 -30.4 29.4 C-31.4 29.4 -32.4 29.4 -33.4 29.4 C-32.4 24.5 -31.7 22.9 -28.4 19.4 C-27.7 19.4 -27.1 19.4 -26.4 19.4 C-25.7 18.1 -25.1 16.8 -24.4 15.4 C-20 11.9 -15.9 10.6 -10.4 9.4 C-10.8 6.6 -10.8 6.6 -12.4 3.4 C-20.6 -0.5 -29.1 0.3 -38.1 0.5 C-42.4 0.4 -42.4 0.4 -45.4 -1.6 C-45.4 -2.2 -45.4 -2.9 -45.4 -3.6 C-33.5 -9.5 -12 -3.5 0 0 Z " fill="#E7CC69" transform="translate(131.375,10.5625)"/>
<path d="M0 0 C1.3 1 2.6 2 4 3 C4 3.7 4 4.3 4 5 C6 5 8 5 10 5 C13.8 9.4 13.8 9.4 17 14 C17.7 14.3 18.3 14.7 19 15 C19 15.7 19 16.3 19 17 C20.6 17.7 22.3 18.3 24 19 C28.1 21.2 32.1 23.4 36 26 C36 26.7 36 27.3 36 28 C31 27 31 27 26 25 C25 24.9 24 24.8 23 24.7 C19.1 23.8 18.1 22.2 15.8 19 C12.1 14.1 12.1 14.1 10 13 C10 12 10 11 10 10 C8 10 6 10 4 10 C2.1 14.8 1.8 16.9 1.9 21.9 C2.1 28.6 1.7 35.2 1 42 C1 45 1 45 3 48 C3 49 3 50 3 51 C3.7 51.3 4.3 51.7 5 52 C-5.9 50.1 -5.9 50.1 -7 49 C-6.9 44.9 -6.8 40.8 -6.6 36.6 C-6.6 35.4 -6.5 34.2 -6.5 32.9 C-6.1 24.1 -5.7 15.2 -5.2 6.4 C-5.1 4.6 -5 2.8 -5 1 C-3.3 0.7 -1.7 0.3 0 0 Z " fill="#F1DC85" transform="translate(19,71)"/>
<path d="M0 0 C0.7 0.8 1.4 1.6 2.1 2.4 C5.4 5.4 7.6 6.2 12 7 C15.9 6.6 15.9 6.6 19 6 C19 7.7 19 9.3 19 11 C25.4 13.5 25.4 13.5 30 12 C32.9 8.9 32.9 8.9 35 6 C36 6.3 37 6.7 38 7 C38 8.7 38 10.3 38 12 C37 12.3 36 12.7 35 13 C35.2 13.3 35.2 13.3 36 15 C37 14.7 38 14.3 39 14 C39 15 39 16 39 17 C35.7 18.7 32.4 20.3 29 22 C31.5 24.5 33.7 24.9 37 26 C41 28 41 28 43 31 C43 36 43 36 40.8 38.9 C39.9 39.6 39 40.3 38 41 C33 40 33 40 31.2 37.4 C29.8 33.4 29.8 30.2 30 26 C29 25.7 28 25.3 27 25 C26.7 23.3 26.3 21.7 26 20 C22.2 18.3 22.2 18.3 18 17 C16.7 16.3 15.4 15.7 14 15 C10.8 15.2 10.8 15.2 7.2 15.9 C6.1 16.1 4.9 16.3 3.7 16.5 C2.8 16.7 1.9 16.8 1 17 C-1.4 13.4 -1.2 11.7 -1.2 7.4 C-1.2 6.2 -1.2 5 -1.2 3.8 C-1 1 -1 1 0 0 Z " fill="#46484C" transform="translate(38,170)"/>
<path d="M0 0 C0 1.3 0 2.6 0 4 C-5.4 6.6 -10.1 7.4 -16 8 C-16.7 8.7 -17.3 9.3 -18 10 C-17.1 10.1 -17.1 10.1 -12.8 10.9 C-7 12 -7 12 -3 14 C-3 14.7 -3 15.3 -3 16 C-1.7 16.7 -0.4 17.3 1 18 C-0.4 17.7 -1.7 17.4 -3.1 17.1 C-4.7 16.7 -6.3 16.4 -8 16 C-8.5 15.9 -8.5 15.9 -10.8 15.4 C-15.9 14.8 -20.9 14.9 -26 15 C-26.3 16 -26.7 17 -27 18 C-29.5 19.4 -29.5 19.4 -32.7 20.9 C-44.1 26.3 -49.7 33.3 -54 45 C-54.7 47.3 -55.4 49.6 -56 52 C-56.7 52 -57.3 52 -58 52 C-59.1 47.1 -59 45.9 -57 41 C-57 39 -57 37 -57 35 C-54.6 31.8 -54.6 31.8 -51 28 C-49.6 26.2 -48.2 24.3 -46.8 22.5 C-40.8 15.2 -33.9 10.4 -25 7 C-23.6 6.3 -22.3 5.7 -20.9 5 C-14.3 2.3 -7.2 0 0 0 Z " fill="#F4DF84" transform="translate(82,7)"/>
<path d="M0 0 C8.2 3.3 12.9 10.3 17 18 C16.7 19.3 16.3 20.6 16 22 C15.3 22.3 15.3 22.3 12 24 C10 28 10 28 9 32 C8.7 32.8 8.7 32.8 7 37 C-1.4 33.8 -1.4 33.8 -3.8 30.5 C-5.4 25.8 -4.9 22.2 -4.2 17.3 C-4 15.6 -3.8 14 -3.6 12.2 C-3 8 -3 8 -2 5 C-1.7 3.7 -1.3 2.4 -1 1 C-0.7 0.7 -0.3 0.3 0 0 Z " fill="#F8DB62" transform="translate(28,88)"/>
<path d="M0 0 C4.3 0 8.6 0 13 0 C11 2 11 2 6 3.4 C1 5 1 5 -1 8 C-3 8 -5 8 -7 8 C-9 8.3 -11 8.6 -13 9 C-14 9 -15 9 -16 9 C-16.3 8 -16.7 7 -17 6 C-17.7 6.7 -18.3 7.3 -19 8 C-19 9.3 -19 10.6 -19 12 C-19.1 18.1 -19.3 24 -21.3 29.8 C-25.1 32.9 -28.4 33.1 -33.1 33.3 C-36 33 -36 33 -39.2 30.9 C-41.2 27.7 -42.1 25.8 -42 22 C-38 18 -38 18 -33 17 C-29.7 17.9 -29.7 17.9 -27 19 C-26.9 25.8 -26.9 25.8 -28 28 C-26.3 27.3 -24.7 26.7 -23 26 C-23 20.7 -23 15.4 -23 10 C-25.4 9.7 -27.8 9.4 -30.3 9.1 C-37.6 8.2 -37.6 8.2 -41 6 C-41 5.3 -41 4.7 -41 4 C-40 3.7 -39 3.3 -38 3 C-38 3.7 -38 4.3 -38 5 C-32.3 5.4 -28 4.8 -22.7 2.9 C-17 1 -17 1 -13 3 C-10.9 3.3 -8.8 3.5 -6.8 3.6 C-4.9 3.7 -3 3.9 -1 4 C-0.7 2.7 -0.3 1.4 0 0 Z " fill="#514E4D" transform="translate(134,177)"/>
<path d="M0 0 C1.7 0 3.3 0 5 0 C5.3 6.2 5.7 12.4 6 18.6 C6.1 20.3 6.2 22.1 6.3 23.9 C6.4 25.6 6.5 27.3 6.6 29 C6.6 29.8 6.6 29.8 6.8 33.7 C7 37.5 7.1 41.2 7 45 C6 46 6 46 2.4 46.1 C1.3 46 0.2 46 -1 46 C-2 41 -2.3 36.3 -2.5 31.2 C-2.8 25.1 -3.2 19.1 -4 13 C-8 15.3 -12 17.6 -16 20 C-17 19.7 -18 19.3 -19 19 C-17.8 18 -16.6 17 -15.3 16 C-11.2 12.2 -8.8 8.7 -6 4 C-5.3 4 -4.7 4 -4 4 C-2.7 2.7 -1.4 1.4 0 0 Z " fill="#D7BE6D" transform="translate(175,72)"/>
<path d="M0 0 C0.7 0.3 1.3 0.7 2 1 C-7.2 11.2 -17.8 14.6 -31 17 C-33.3 17.1 -35.7 17.1 -38 17 C-39 21 -40 24.9 -41 29 C-40.3 29 -39.7 29 -39 29 C-38.9 27.9 -38.7 26.7 -38.6 25.6 C-38 22 -38 22 -37 21 C-35 21 -33 21 -31 21 C-28 24 -28 24 -27.8 27 C-29 30 -29 30 -32.6 31.7 C-34.1 32.1 -35.5 32.6 -37 33 C-39.3 34 -41.7 35 -44 36 C-44 36.7 -44 37.3 -44 38 C-39 37 -39 37 -36 34.9 C-33 33 -33 33 -28 33 C-25.1 35.8 -25.1 35.8 -23 39 C-24 43 -24 43 -27 46 C-30.2 46.7 -30.2 46.7 -33 47 C-31 45 -31 45 -28 43 C-28.7 43.2 -28.7 43.2 -32 44 C-32 43 -32 42 -32 41 C-31.7 40.8 -31.7 40.8 -30 40 C-29.7 38.3 -29.3 36.7 -29 35 C-33 36 -33 36 -34.9 38.5 C-37 41 -37 41 -39.9 41.9 C-43 42 -43 42 -48 40 C-48 37 -48 37 -44 33 C-43.4 30.1 -43.4 30.1 -43.2 27 C-43.2 26 -43.1 24.9 -43.1 23.9 C-43 21.6 -43 19.3 -43 17 C-43 16.3 -43 15.7 -43 15 C-41.6 14.9 -40.3 14.7 -38.9 14.6 C-33.8 14 -29 13.2 -24 12 C-22.3 12 -20.7 12 -19 12 C-18.7 10.3 -18.3 8.7 -18 7 C-16 6.7 -14 6.3 -12 6 C-11.7 5 -11.3 4 -11 3 C-11 3.7 -11 4.3 -11 5 C-9 5 -7 5 -5 5 C-5 4.3 -5 3.7 -5 3 C-3.3 2 -1.7 1 0 0 Z " fill="#333335" transform="translate(105,142)"/>
<path d="M0 0 C10.1 -0.4 17.7 -0.6 25.8 6.1 C29.2 10.3 31.1 14 33 19 C33.2 19.5 33.2 19.5 34.2 22.2 C35 25 35 25 35 30 C33.7 29.7 32.4 29.3 31 29 C30.9 27.8 30.7 26.6 30.6 25.4 C28.4 19.3 25.2 17.7 20 14 C20 13.3 20 12.7 20 12 C15.3 11.1 10.7 10.9 5.9 10.8 C4.8 10.7 3.6 10.7 2.4 10.7 C-1.4 11 -3.7 12.2 -7 14 C-7.7 14 -8.3 14 -9 14 C-9.7 15.3 -10.3 16.6 -11 18 C-15 21 -15 21 -17 21 C-17.3 21.9 -17.6 22.9 -17.9 23.9 C-19 27 -19 27 -20 29 C-20.2 31.2 -20.4 33.4 -20.6 35.6 C-20.6 36.8 -20.7 38 -20.8 39.2 C-20.8 39.7 -20.8 39.7 -21 42 C-21.3 42 -21.7 42 -22 42 C-23.8 34 -24.3 26.2 -20 19 C-13.6 11.4 -7.3 6.5 2.9 5.5 C11.8 6.4 19 9.4 26 15 C23.1 10.1 21.5 8.9 17 6 C17 5.3 17 4.7 17 4 C11.1 3.3 5.1 2.7 -1 2 C-0.7 1.3 -0.3 0.7 0 0 Z " fill="#A9A8A3" transform="translate(129,29)"/>
<path d="M0 0 C1 3.9 1.2 7.1 1.2 11.1 C1.2 12.4 1.2 13.6 1.2 14.9 C1 18 1 18 -1 20 C-1.7 20 -2.3 20 -3 20 C-4 21.3 -5 22.6 -6 24 C-7.3 24.3 -8.6 24.7 -10 25 C-10 22 -10 22 -9 17 C-10 17 -11 17 -12 17 C-12.7 17.7 -13.3 18.3 -14 19 C-16.1 19.9 -18.2 20.8 -20.4 21.6 C-21.5 22 -22.7 22.4 -23.8 22.9 C-27 24 -27 24 -31 25 C-27 13.9 -12.4 0 0 0 Z " fill="#C9A040" transform="translate(184,132)"/>
<path d="M0 0 C1.1 0.7 2.1 1.5 3.2 2.2 C3.7 2.6 3.7 2.6 6.2 4.2 C8.2 6.2 8.2 6.2 9.2 10.2 C7.9 9.6 6.6 8.9 5.2 8.2 C-2.9 4.6 -9.6 2.3 -18.8 3.2 C-22.1 4.5 -22.1 4.5 -24.8 6.2 C-25.7 6.8 -26.7 7.4 -27.8 8 C-33.5 12.3 -36.3 15.7 -38.4 22.8 C-39.2 29.3 -37.6 34.9 -35.6 41.1 C-34.8 44.2 -34.8 44.2 -35.8 47.2 C-42.4 39.7 -44.2 32.1 -43.8 22.2 C-42 14.2 -38.2 9.3 -32.8 3.2 C-31.8 3.2 -30.8 3.2 -29.8 3.2 C-29.8 2.6 -29.8 1.9 -29.8 1.2 C-20.8 -3.3 -9.4 -3.5 0 0 Z " fill="#6C6A63" transform="translate(76.75,32.75)"/>
<path d="M0 0 C0.7 0.7 1.3 1.3 2 2 C4.7 3 7.3 4 10 5 C11 5.7 12 6.3 13 7 C13 8 13 9 13 10 C11.7 10.3 10.4 10.7 9 11 C8.7 12.7 8.3 14.3 8 16 C6 16.7 4 17.3 2 18 C2 17 2 16 2 15 C3 14.7 4 14.3 5 14 C6.2 9.9 6.2 9.9 7 6 C5.3 6.7 3.7 7.3 2 8 C2 7.3 2 6.7 2 6 C1.3 6 0.7 6 0 6 C0.2 6.8 0.2 6.8 1 11 C-1.3 11.7 -3.6 12.3 -6 13 C-5.3 14.3 -4.7 15.6 -4 17 C-4.7 17.7 -5.3 18.3 -6 19 C-7.3 19 -8.6 19 -10 19 C-10.7 20 -11.3 21 -12 22 C-13.7 22 -15.3 22 -17 22 C-17.3 21.7 -17.7 21.3 -18 21 C-17.7 22.3 -17.3 23.6 -17 25 C-16.9 28.7 -16.9 32.3 -17 36 C-17.7 36.7 -18.3 37.3 -19 38 C-20 38 -21 38 -22 38 C-21.7 39.7 -21.3 41.3 -21 43 C-25 45 -25 45 -30 45 C-31 44 -32 43 -33 42 C-31.4 40 -29.7 38 -28 36 C-26.7 36.3 -25.4 36.7 -24 37 C-24 35.3 -24 33.7 -24 32 C-23 31 -22 30 -21 29 C-21 28 -21 27 -21 26 C-20.7 25 -20.3 24 -20 23 C-21 22.7 -22 22.3 -23 22 C-23 21 -23 20 -23 19 C-21 18.3 -19 17.7 -17 17 C-17 16 -17 15 -17 14 C-16.3 14 -15.7 14 -15 14 C-15.3 15.3 -15.7 16.6 -16 18 C-15 17.3 -14 16.7 -13 16 C-13 15 -13 14 -13 13 C-10.5 10.3 -10.5 10.3 -8 8 C-7.3 8.7 -6.7 9.3 -6 10 C-5.7 8.7 -5.3 7.4 -5 6 C-3.7 5 -2.4 4 -1 3 C-0.7 2 -0.3 1 0 0 Z " fill="#764629" transform="translate(78,133)"/>
<path d="M0 0 C1.3 0.7 2.6 1.3 4 2 C6 2.4 8 2.7 10 3 C9 4.7 8 6.3 7 8 C6.7 9.3 6.3 10.6 6 12 C5 12.3 4 12.7 3 13 C3.3 11.7 3.7 10.4 4 9 C3.3 9 2.7 9 2 9 C2 10 2 11 2 12 C-1 14 -1 14 -4 14 C-3.7 15 -3.3 16 -3 17 C-2.3 17.3 -1.7 17.7 -1 18 C-1.3 19.7 -1.7 21.3 -2 23 C-2 24 -2 25 -2 26 C-3 26.3 -4 26.7 -5 27 C-5 28.7 -5 30.3 -5 32 C-5.7 32.2 -5.7 32.2 -9 33 C-11.8 35.6 -11.8 35.6 -14 38 C-18 36 -18 36 -21 31 C-19 30.7 -17 30.3 -15 30 C-14.7 28.7 -14.3 27.4 -14 26 C-13.3 24.7 -12.7 23.4 -12 22 C-10.7 22.3 -9.4 22.7 -8 23 C-7.7 21.3 -7.3 19.7 -7 18 C-6.7 17.3 -6.3 16.7 -6 16 C-9 16.3 -11.9 16.7 -15 17 C-17 14 -17 14 -17 9 C-16.3 8.3 -15.7 7.7 -15 7 C-14 7 -13 7 -12 7 C-11 8 -10 9 -9 10 C-4.8 9.7 -4.8 9.7 -1 9 C-1 7.7 -1 6.4 -1.1 5.1 C-1 1 -1 1 0 0 Z " fill="#70503B" transform="translate(59,138)"/>
<path d="M0 0 C2.8 4.1 2.4 6.5 2.2 11.4 C-8.1 11.8 -16.3 11.6 -25.8 7.4 C-25.8 2.4 -25.6 0.4 -22.8 -3.6 C-19.1 -4.5 -19.1 -4.5 -14.8 -4.6 C-13.4 -4.7 -12 -4.7 -10.5 -4.8 C-5.7 -4.6 -3.5 -3.3 0 0 Z " fill="#1C1A1A" transform="translate(125.75,239.625)"/>
<path d="M0 0 C4.9 0.6 6.7 1 10 4.6 C11.7 8 11.3 10.9 11 14.6 C9.1 18.1 9.1 18.1 6 20.6 C1.2 21.8 -1.6 22.5 -5.9 19.9 C-8.7 16.9 -9.9 14.3 -10.4 10.2 C-9.6 3.3 -6.9 0.9 0 0 Z " fill="#947352" transform="translate(123,51.375)"/>
<path d="M0 0 C0.7 -0 0.7 -0 4.2 -0 C8.2 0.2 11.5 0.9 15.2 2.2 C15.2 2.8 15.2 3.5 15.2 4.2 C16.1 4.5 16.1 4.5 20.2 6.2 C24.2 10.2 24.2 10.2 24.2 13.2 C20.2 11.2 20.2 11.2 16.9 9.2 C10 5.4 4.1 4.6 -3.8 5.2 C-11.9 7.7 -17.3 12.7 -22.8 19.2 C-25.7 28 -23.3 38.3 -21.8 47.2 C-27.3 41.7 -28.5 36.9 -29.1 29.2 C-28.4 19.5 -25.2 13.4 -18.8 6.2 C-12.1 1.5 -8 0 0 0 Z " fill="#747067" transform="translate(130.75,30.8125)"/>
<path d="M0 0 C0 0.7 0 1.3 0 2 C1.3 2.7 2.6 3.3 4 4 C5.8 7.6 5.2 11.1 5 15 C2 20 2 20 0 21 C-8.1 21.7 -8.1 21.7 -12 18.6 C-15 14.7 -15 14.4 -14.9 9.1 C-14 4 -14 4 -12 1.4 C-7.9 -0.5 -4.4 -0.3 0 0 Z " fill="#5F5045" transform="translate(76,51)"/>
<path d="M0 0 C1 0 2 0 3 0 C4 1.3 5 2.6 6 4 C3.7 6.6 1.4 9.3 -1 12 C0.3 11.3 1.6 10.7 3 10 C2.3 11.7 1.7 13.3 1 15 C-0.7 15.7 -2.3 16.3 -4 17 C-4 13.7 -4 10.3 -4 7 C-6 7 -8 7 -10 7 C-10.3 7.3 -10.7 7.7 -11 8 C-11 9.7 -11 11.3 -11 13 C-8.5 15.2 -8.5 15.2 -6 17 C-6 17.7 -6 18.3 -6 19 C-7.3 19.3 -8.6 19.7 -10 20 C-14 15.4 -14 15.4 -14 12 C-14.5 12.2 -14.5 12.2 -17.3 13.5 C-21 15 -21 15 -24 15 C-25.6 11.8 -25.6 11.8 -27 8 C-26.3 6.7 -25.7 5.4 -25 4 C-27.6 4.3 -30.3 4.7 -33 5 C-32.5 6.1 -32 7.2 -31.4 8.3 C-30 12 -30 12 -31 15 C-31.7 14.1 -32.4 13.1 -33.2 12.1 C-36 9 -36 9 -41 7 C-41.3 5.7 -41.7 4.4 -42 3 C-37.8 2.2 -34.2 2 -29.9 2.3 C-28.8 2.4 -27.7 2.5 -26.6 2.6 C-26 2.7 -26 2.7 -23.1 2.9 C-22 3 -20.8 3.1 -19.6 3.2 C-16.7 3.5 -13.9 3.7 -11 4 C-10.7 3.3 -10.3 2.7 -10 2 C-10 2.7 -10 3.3 -10 4 C-9.1 3.7 -8.2 3.3 -7.2 3 C-4 2 -4 2 0 2 C0 1.3 0 0.7 0 0 Z " fill="#465A70" transform="translate(154,138)"/>
<path d="M0 0 C0.5 -0 0.5 -0 3.1 -0.1 C6 0.2 6 0.2 10 3.2 C11.2 7.4 11.2 7.4 12 11.2 C2.8 16 -5.8 15.7 -16 15.2 C-15.6 6 -15.6 6 -12.7 2.7 C-8.5 0.4 -4.7 0.1 0 0 Z " fill="#1B1919" transform="translate(82,235.75)"/>
<path d="M0 0 C-0.3 1.7 -0.7 3.3 -1 5 C-0.7 5.5 -0.7 5.5 1 8 C1 9 1 10 1 11 C2.7 10.5 2.7 10.5 11 8 C12 9.7 13 11.3 14 13 C14.7 13.7 15.3 14.3 16 15 C17 15 18 15 19 15 C19 14.3 19 13.7 19 13 C17.7 12.3 16.4 11.7 15 11 C14.3 10.3 13.7 9.7 13 9 C13 4 13 4 15 2 C18.1 2.4 18.1 2.4 21 3 C22 9.7 22 9.7 22 12 C23 11.7 24 11.3 25 11 C24 15 24 15 21.1 17.1 C16.5 19.2 11.9 20.6 7 22 C6.3 22.3 5.7 22.7 5 23 C5 21.7 5 20.4 5 19 C4.1 18.6 3.2 18.2 2.2 17.8 C-3.4 14.7 -4.7 11.8 -6.8 5.7 C-7.2 4.1 -7.6 2.6 -8 1 C-4 0 -4 0 0 0 Z " fill="#3E454E" transform="translate(129,142)"/>
<path d="M0 0 C2.2 7.2 2.4 14.1 2.6 21.5 C2.7 22.7 2.7 23.9 2.7 25.1 C2.8 28.1 2.9 31 3 34 C-0.3 34.3 -0.3 34.3 -4 34 C-7.3 28.6 -7 26 -6.8 19.9 C-7.1 16.1 -8.8 14 -11 11 C-10.5 6.7 -9.2 5.2 -6.1 2.1 C-3 0 -3 0 0 0 Z " fill="#CEA840" transform="translate(171,85)"/>
<path d="M0 0 C1.3 0 2.5 0 3.9 0.1 C4.3 0.1 4.3 0.1 6.8 0.1 C7.1 1.1 7.5 2.1 7.8 3.1 C9.1 3.8 10.5 4.4 11.8 5.1 C12.5 6.8 13.1 8.4 13.8 10.1 C14.8 10.8 15.8 11.4 16.8 12.1 C17.3 19.4 17.3 23.7 13.8 30.1 C13.4 31.1 12.9 32.2 12.4 33.2 C12 34.2 11.5 35.3 11 36.3 C10.5 37.3 10.1 38.4 9.6 39.4 C7.4 42.8 5.5 43.7 1.8 45.1 C-7.9 46.8 -7.9 46.8 -12.9 44.2 C-13.6 43.5 -14.4 42.8 -15.2 42.1 C-11.2 41.1 -11.2 41.1 -8.2 42.1 C-6.5 41.5 -4.9 40.8 -3.2 40.1 C-2.4 40 -2.4 40 1.8 39.1 C3.8 38.5 5.8 37.8 7.8 37.1 C11.3 13.7 11.3 13.7 6.8 5.1 C5.5 5.1 4.2 5.1 2.8 5.1 C2.5 4.5 2.2 3.8 1.8 3.1 C-2.2 2.5 -6.2 2.4 -10.2 2.1 C-6.5 -0.4 -4.4 -0.1 0 0 Z " fill="#F7F6F3" transform="translate(135.1875,38.875)"/>
<path d="M0 0 C0.9 3.2 0.9 3.2 1 6 C-0.5 6.6 -2.1 7.2 -3.7 7.8 C-9.2 10.1 -12.5 11.8 -15.9 16.8 C-18 19 -18 19 -21.4 19.5 C-25 19 -25 19 -30 16 C-29.7 15.3 -29.3 14.7 -29 14 C-25.3 13.6 -21.7 13.3 -18 13 C-16.7 12.7 -15.4 12.3 -14 12 C-14.7 11 -15.3 10 -16 9 C-16.1 7.8 -16.2 6.7 -16.3 5.5 C-16.4 4.9 -16.4 4.9 -17 2 C-18.7 1 -20.3 0 -22 -1 C-22 -1.7 -22 -2.3 -22 -3 C-14.7 -4.7 -6.2 -4.6 0 0 Z " fill="#F5D666" transform="translate(120,14)"/>
<path d="M0 0 C12.3 -0.5 12.3 -0.5 17 3 C17.3 4.3 17.7 5.6 18 7 C19.3 7.7 20.6 8.3 22 9 C24.3 14.3 25.7 18.3 24 24 C23.7 24.7 23.3 25.3 23 26 C22.3 26 21.7 26 21 26 C20.9 24.8 20.9 23.6 20.8 22.3 C19.9 17.4 18.6 16.2 15 13 C15 12.3 15 11.7 15 11 C6.4 11.6 6.4 11.6 3 15 C2.3 15 1.7 15 1 15 C0.7 18.3 0.3 21.6 0 25 C-2.2 21.7 -3 18.8 -4 15 C-1 13 -1 13 1 12 C1.7 10.7 2.3 9.4 3 8 C3.7 7 4.3 6 5 5 C5 3.7 5 2.4 5 1 C3.3 1 1.7 1 0 1 C0 0.7 0 0.3 0 0 Z " fill="#F8F8F5" transform="translate(61,40)"/>
<path d="M0 0 C5 1 5 1 6 2 C6 5 6 8 6 11 C6.7 11.3 7.3 11.7 8 12 C7.7 13 7.3 14 7 15 C6.3 15 5.7 15 5 15 C5 16 5 17 5 18 C10.2 17.5 12.4 16.8 17 14 C17.3 15.3 17.7 16.6 18 18 C16.4 18.7 14.7 19.3 13 20 C13.7 21.3 14.3 22.6 15 24 C15.3 24.7 15.7 25.3 16 26 C15.7 26.8 15.7 26.8 14 31 C4.8 27.3 0.6 20.3 -4 12 C-4.3 11 -4.7 10 -5 9 C-3.4 8 -1.7 7 0 6 C0 4 0 2 0 0 Z " fill="#87A0AE" transform="translate(21,181)"/>
<path d="M0 0 C0.7 0 1.3 0 2 0 C4.1 5.2 4.3 8.3 4.2 13.8 C4.3 14.6 4.3 14.6 4.3 18.5 C3.6 29.3 -0 35.7 -8 43 C-8.7 43 -9.3 43 -10 43 C-10.7 44.3 -11.3 45.6 -12 47 C-16.3 48.6 -16.3 48.6 -21 50 C-22.7 50.7 -24.3 51.3 -26 52 C-34.1 52.4 -40.2 51.7 -48 49 C-48 48 -48 47 -48 46 C-46.3 46.3 -44.7 46.7 -43 47 C-40.1 47.1 -37.1 47.2 -34.2 47.2 C-32.7 47.3 -31.1 47.3 -29.5 47.3 C-24.8 47 -21.4 45.8 -17 44 C-16 44 -15 44 -14 44 C-14 43.3 -14 42.7 -14 42 C-11.3 40 -8.7 38 -6 36 C-5.3 35 -4.7 34 -4 33 C-3.3 33 -2.7 33 -2 33 C0.6 21.7 2.1 11.6 0 0 Z " fill="#CFCBBA" transform="translate(166,48)"/>
<path d="M0 0 C-0.3 1.3 -0.7 2.6 -1 4 C-1.5 4 -1.5 4 -4.1 4.2 C-8.3 5.1 -10.5 6.5 -14 9 C-18 10 -18 10 -22 9 C-23 9.3 -24 9.7 -25 10 C-25.3 10.6 -25.3 10.6 -26.8 13.9 C-29 18 -29 18 -32.1 19.6 C-35 20 -35 20 -38 18 C-38.3 14 -38.3 10.8 -37 7 C-37.7 6.3 -38.3 5.7 -39 5 C-37.3 4.3 -35.7 3.7 -34 3 C-34 4.3 -34 5.6 -34 7 C-33 6.8 -33 6.8 -28.2 6 C-25.1 5.5 -22.2 5 -19 5 C-18.3 4 -17.7 3 -17 2 C-14.4 0.8 -14.4 0.8 -11.2 -0.3 C-10.1 -0.7 -9.1 -1 -8 -1.4 C-5 -2 -5 -2 0 0 Z " fill="#40556E" transform="translate(152,179)"/>
<path d="M0 0 C0.3 1.6 0.7 3.3 1 5 C-1.9 8.7 -1.9 8.7 -5 12 C-5.3 12.7 -5.7 13.3 -6 14 C-6.3 14.2 -6.3 14.2 -8 15 C-7.3 17.3 -6.7 19.6 -6 22 C-6.7 22.3 -7.3 22.7 -8 23 C-8.7 25.3 -9.4 27.6 -10 30 C-10.7 30 -11.3 30 -12 30 C-12.1 29.1 -12.2 28.2 -12.2 27.3 C-13.1 23.5 -14.6 21.9 -17 19 C-18 14 -18 14 -15 9 C-14 9 -13 9 -12 9 C-12 8.3 -12 7.7 -12 7 C-12.7 7 -13.3 7 -14 7 C-13 3 -13 3 -10.4 1.2 C-6.7 -0.1 -3.9 -0.2 0 0 Z " fill="#FEFDF9" transform="translate(66,41)"/>
<path d="M0 0 C0.7 0 1.3 0 2 0 C2.1 1.2 2.1 2.4 2.2 3.6 C3.1 8.6 4.8 11 8 15 C11 20 11 20 11 22 C11.7 22 12.3 22 13 22 C13 22.7 13 23.3 13 24 C15.6 23.9 18.3 23.8 20.9 23.7 C22.3 23.6 23.8 23.6 25.3 23.5 C26.5 23.3 27.7 23.2 29 23 C29.7 22 30.3 21 31 20 C27.4 20 23.7 20 20 20 C19.7 19 19.3 18 19 17 C19.7 16 20.3 15 21 14 C22.3 15 23.6 16 25 17 C32.1 18.3 32.1 18.3 36 17 C36.2 16.5 36.2 16.5 37 14 C37.7 14 38.3 14 39 14 C38 19 38 19 35 23 C28.2 25.6 21.7 27.1 14.4 27.2 C13.2 27.3 12.1 27.3 11 27.3 C8 27 8 27 5 24 C3.6 21 2.3 18 1 15 C0.3 13.7 -0.3 12.4 -1 11 C-1.2 5.8 -1.2 5.8 -1 1 C-0.7 0.7 -0.3 0.3 0 0 Z " fill="#F7F6F4" transform="translate(43,55)"/>
<path d="M0 0 C0.7 0 1.3 0 2 0 C2 0.7 2 1.3 2 2 C3.7 1.3 5.3 0.7 7 0 C6.8 3.8 6.8 3.8 6 8 C4.7 9 3.4 10 2 11 C3 11 4 11 5 11 C5.7 12.3 6.3 13.6 7 15 C-0.9 17 -7.8 18.1 -16 18 C-15.3 19.7 -14.7 21.3 -14 23 C-14.3 24.7 -14.7 26.3 -15 28 C-15.1 29.3 -15.1 30.6 -15.2 32 C-16.2 36.9 -17.9 38.2 -22 41 C-22 38 -22 35.1 -22 32 C-20.7 31.3 -19.4 30.7 -18 30 C-17.9 24.5 -17.9 19.4 -19 14 C-17.9 14.2 -16.8 14.5 -15.7 14.7 C-14.5 14.8 -13.3 14.9 -12 15 C-11 14 -10 13 -9 12 C-7.7 11.7 -6.4 11.3 -5 11 C-5 10.3 -5 9.7 -5 9 C-5.7 8.3 -6.3 7.7 -7 7 C-4 5 -4 5 1 5 C0.7 3.3 0.3 1.7 0 0 Z " fill="#523627" transform="translate(78,139)"/>
<path d="M0 0 C4.6 0.5 6.1 1.1 10 4 C10.7 7.5 10.7 7.5 11 11 C11.3 12 11.7 13 12 14 C7.8 16.1 4.7 16.6 0 17 C-0.7 16.7 -1.3 16.3 -2 16 C-2 15.3 -2 14.7 -2 14 C-2.8 13.7 -2.8 13.7 -7 12 C-9.8 9.4 -9.8 9.4 -12 7 C-11.3 5.4 -10.7 3.7 -10 2 C-6.9 1.2 -6.9 1.2 -4 1 C-3.7 2.7 -3.3 4.3 -3 6 C-2 6 -1 6 0 6 C0 4 0 2 0 0 Z " fill="#F9DC63" transform="translate(94,12)"/>
<path d="M0 0 C0.7 0.3 1.3 0.7 2 1 C2.9 4.2 2.9 4.2 3.7 8.2 C4 9.5 4.2 10.8 4.5 12.2 C5.5 20 2.8 25.2 -1 32 C-5 35 -5 35 -9 35 C-9.3 36.3 -9.7 37.6 -10 39 C-16.7 42.6 -23.6 42.8 -31 42 C-36.6 40.2 -41.9 38.4 -46 34 C-46 32.7 -46 31.4 -46 30 C-45.3 30 -44.7 30 -44 30 C-43.3 30.8 -42.6 31.5 -41.8 32.3 C-36.9 37 -33 37.9 -26.3 38.6 C-17.9 38.3 -10.9 34.9 -4.9 28.9 C1.3 19.5 2 11.1 0 0 Z " fill="#C3C2BC" transform="translate(157,49)"/>
<path d="M0 0 C1.3 0.3 2.6 0.7 4 1 C5 3.7 6 6.3 7 9 C8.9 12.5 8.9 12.5 12 15 C16.1 15.5 19.8 15.3 24 15 C23.7 16.3 23.3 17.6 23 19 C20.3 19.2 17.7 19.5 15 19.7 C12.4 20 9.7 20.3 7.1 20.7 C3 21 3 21 -1 19 C-3 12.3 -3.3 7.6 -1 1 C-0.7 0.7 -0.3 0.3 0 0 Z " fill="#4A6078" transform="translate(88,197)"/>
<path d="M0 0 C0 1 0 2 0 3 C3 2.3 5.9 1.7 9 1 C9 2 9 3 9 4 C8.2 4.4 7.4 4.8 6.6 5.1 C-6.1 11.3 -13.1 17.7 -18 31 C-18.7 33.3 -19.4 35.6 -20 38 C-20.7 38 -21.3 38 -22 38 C-23.1 33.1 -23 31.9 -21 27 C-21 25 -21 23 -21 21 C-18.6 17.8 -18.6 17.8 -15 14 C-12.7 11.2 -10.4 8.3 -8.1 5.5 C-3.4 0 -3.4 0 0 0 Z " fill="#EEECE7" transform="translate(46,21)"/>
<path d="M0 0 C5.3 1.3 7.9 4.4 12 8 C13.3 8.7 14.6 9.3 16 10 C16.2 10.5 16.2 10.5 17 13 C16.2 12.9 15.3 12.8 14.5 12.7 C4.8 11.7 -3.5 12.9 -13 15 C-15 15.3 -17 15.7 -19 16 C-19 15.3 -19 14.7 -19 14 C-20.3 13.3 -21.6 12.7 -23 12 C-21.4 11.8 -19.8 11.7 -18.1 11.5 C-10.3 10.1 -5.5 5.5 0 0 Z " fill="#36271E" transform="translate(96,84)"/>
<path d="M0 0 C6.9 1.9 6.9 1.9 8 3 C9.6 3 11.3 3 13 3 C17 3 17 3 19 4 C19 5 19 6 19 7 C23.3 7.3 27.6 7.7 32 8 C32 8.7 32 9.3 32 10 C27.9 11.6 23.9 13 19.6 14 C19 14.2 19 14.2 16 15 C15.7 16 15.3 17 15 18 C12.7 18 10.4 18 8 18 C8 17.7 8 17.3 8 17 C9 16.9 9.9 16.8 10.9 16.6 C11.9 16.4 13 16.2 14 16 C14.3 15.3 14.7 14.7 15 14 C13.4 13.7 11.7 13.3 10 13 C6.2 9.7 3.1 5.9 0 2 C0 1.3 0 0.7 0 0 Z " fill="#CDAB5B" transform="translate(43,95)"/>
<path d="M0 0 C2 0.7 4 1.3 6 2 C6 2.7 6 3.3 6 4 C6.7 4 7.3 4 8 4 C8 3.3 8 2.7 8 2 C14.7 2 16.3 3.3 21 7.8 C23.3 10.3 24.8 12.8 26 16 C25 16.7 24 17.3 23 18 C22.3 19 21.7 20 21 21 C20.3 20.4 19.6 19.8 18.9 19.2 C14.4 15.5 9.9 11.9 4.9 8.8 C1 6 1 6 -0.1 2.6 C-0 1.8 -0 0.9 0 0 Z " fill="#6B8596" transform="translate(20,129)"/>
<path d="M0 0 C0.8 0.8 0.8 0.8 5 5 C4.7 5.3 4.3 5.7 4 6 C0.7 5.9 -2.6 5.7 -5.9 5.4 C-13.7 5 -20.5 4.7 -28 7 C-28.7 8.3 -29.3 9.6 -30 11 C-32.2 13 -32.2 13 -34.9 15 C-38.2 17.5 -41 20 -44 23 C-45 23 -46 23 -47 23 C-46 18.1 -45.3 16.5 -42 13 C-41.3 13 -40.7 13 -40 13 C-39.3 11.7 -38.7 10.4 -38 9 C-27.1 0.2 -14.2 0.8 -1 2 C-0.7 1.3 -0.3 0.7 0 0 Z " fill="#E8DCAB" transform="translate(145,17)"/>
<path d="M0 0 C0.7 0.3 1.3 0.7 2 1 C1.9 1.8 1.7 2.6 1.6 3.4 C0.9 7.6 0.4 11.8 0 16 C0.7 16 1.3 16 2 16 C2.3 15.3 2.7 14.7 3 14 C3 20 3 20 2 25 C2.7 26.7 3.3 28.3 4 30 C4 31 4 32 4 33 C2.4 33 0.7 33 -1 33 C-2.3 31.7 -3.6 30.4 -5 29 C-6.6 29 -8.3 29 -10 29 C-9.2 26.1 -8.4 23.1 -7.6 20.2 C-7.2 18.6 -6.7 16.9 -6.3 15.2 C-5 11 -5 11 -3 8 C-2.3 5.7 -1.6 3.3 -1 1 C-0.7 0.7 -0.3 0.3 0 0 Z " fill="#BFBDB3" transform="translate(24,43)"/>
<path d="M0 0 C1 0.7 2 1.3 3 2 C3.7 5.4 3.7 5.4 4 10 C4.1 11.8 4.2 13.5 4.4 15.4 C3.8 24.1 0.7 29.8 -5.7 35.6 C-10 39 -10 39 -12 39 C-12 39.7 -12 40.3 -12 41 C-21.4 43.7 -30 44 -38.8 39.6 C-42 37 -42 37 -43 34 C-41.7 34.7 -40.4 35.3 -39 36 C-30.5 39.3 -24.6 40.2 -16 36.9 C-3.5 31.2 -3.5 31.2 -0.6 24.8 C0.7 16.3 1.1 8.6 0 0 Z " fill="#C8C7BD" transform="translate(89,48)"/>
<path d="M0 0 C1.7 0.3 3.3 0.7 5 1 C4.9 2.2 4.9 3.4 4.8 4.6 C5 9.1 5.8 11.2 8 15 C8 15.7 8 16.3 8 17 C11 17 13.9 17 17 17 C16.7 18 16.3 19 16 20 C18 20.3 20 20.7 22 21 C22 21.7 22 22.3 22 23 C18.7 23.3 15.4 23.7 12.1 24 C10.3 24.2 8.5 24.4 6.6 24.6 C2 25 2 25 0 25 C0 26.7 0 28.3 0 30 C-1 30 -2 30 -3 30 C-3.7 28.7 -4.3 27.4 -5 26 C-4 24.7 -3 23.4 -2 22 C2.7 21.8 2.7 21.8 7 22 C7.3 21.3 7.7 20.7 8 20 C7 20 6 20 5 20 C5 19 5 18 5 17 C4.3 17 3.7 17 3 17 C-0.8 10.6 -0.2 7.3 0 0 Z " fill="#526274" transform="translate(64,195)"/>
<path d="M0 0 C1 -0.3 2 -0.7 3 -1 C3.7 -0 4.3 1 5 2 C2.9 2.8 0.8 3.7 -1.2 4.5 C-2.4 5 -3.6 5.4 -4.8 5.9 C-8 7 -8 7 -12 7 C-12.2 6.7 -12.2 6.7 -13 5 C-17.4 4.9 -21.7 5 -26.1 5.5 C-32.8 6.2 -39.3 6.1 -46 6 C-46 5.7 -46 5.3 -46 5 C-44 4.7 -42.1 4.5 -40.1 4.2 C-33.3 3.2 -27.2 1.2 -20.8 -1.2 C-13.7 -2.7 -6.5 -3.2 0 0 Z " fill="#3A4451" transform="translate(145,216)"/>
<path d="M0 0 C0.7 1 1.3 2 2 3 C-1 4 -4 5 -7 6 C-7 6.7 -7 7.3 -7 8 C-9 8 -11 8 -13 8 C-13.4 8.9 -13.7 9.9 -14.1 10.9 C-16.4 15.9 -19.1 20.3 -22 25 C-27 23 -27 23 -28 21 C-28 14.8 -27.7 13.6 -24 9 C-19 6 -19 6 -13.9 5.5 C-9 5 -9 5 -6 2 C-2.8 0.8 -2.8 0.8 0 0 Z " fill="#B48141" transform="translate(67,107)"/>
<path d="M0 0 C3.4 2.2 4.9 3.6 6.4 7.4 C7.5 15.9 7.4 22.5 3.2 30.1 C-2.3 36.8 -9 42 -18 43.5 C-25.6 43.8 -30.6 42 -37 38 C-37.7 36.7 -38.3 35.4 -39 34 C-37.9 34.6 -36.7 35.2 -35.6 35.8 C-22.6 42 -22.6 42 -16 40 C-11.6 38.1 -7.3 36.1 -3 34 C3.5 17.7 3.5 17.7 2.1 10 C1.9 9 1.8 7.9 1.6 6.9 C1.1 4.6 0.6 2.3 0 0 Z " fill="#E5E3DB" transform="translate(152,45)"/>
<path d="M0 0 C1.3 0.7 2.6 1.3 4 2 C4 2.7 4 3.3 4 4 C5.3 4.7 6.6 5.3 8 6 C11.4 15.4 11.8 24.4 9 34 C6.7 36.7 6.7 36.7 4 39 C3.2 39.7 2.4 40.4 1.6 41.1 C-5 45.9 -12.9 49.2 -21 48 C-30.7 44.7 -30.7 44.7 -32 42 C-30.6 42.5 -29.1 43 -27.6 43.6 C-17.1 46.3 -9.8 43.4 -0.1 39.2 C3.8 36.4 4.1 34.6 5 30 C5.3 29.2 5.3 29.2 6.8 25.2 C8.2 19.2 7.9 15.9 6 10 C2.9 5.5 2.9 5.5 0 2 C0 1.3 0 0.7 0 0 Z " fill="#E1DFD7" transform="translate(80,40)"/>
<path d="M0 0 C2 1 2 1 4 6 C5.6 17.5 5.8 29.7 -1.2 39.5 C-2.1 40.3 -3 41.2 -4 42 C-4.7 41.7 -5.3 41.3 -6 41 C-5.7 40.3 -5.3 39.7 -5 39 C-9.3 40.8 -13 42.6 -17 45 C-18.7 45 -20.3 45 -22 45 C-18 42 -18 42 -14 41 C-13.7 40 -13.3 39 -13 38 C-11.9 37.7 -10.9 37.4 -9.8 37.1 C-4 33.9 -1.9 29.2 0 23 C0.2 19.1 -0.3 15.9 -1 12 C0.3 12.3 1.6 12.7 3 13 C2 8.7 1 4.4 0 0 Z " fill="#B3B4AE" transform="translate(161,46)"/>
<path d="M0 0 C-1 3 -1 3 -3.4 4.3 C-4.5 4.8 -5.5 5.2 -6.6 5.7 C-12.6 8.5 -16.5 12.1 -21 17 C-24.2 20.1 -26 21.8 -30.5 22.6 C-31.8 22.5 -33 22.5 -34.4 22.4 C-35.1 22.4 -35.1 22.4 -38.8 22.3 C-48.6 21.7 -58.3 20.9 -68 20 C-68 19.7 -68 19.3 -68 19 C-67.1 19 -66.1 19 -65.1 18.9 C-60.8 18.8 -56.5 18.7 -52.1 18.6 C-50.6 18.6 -49.1 18.6 -47.6 18.5 C-26.3 18 -26.3 18 -18 10 C-17.3 10 -16.7 10 -16 10 C-15.7 8.7 -15.3 7.4 -15 6 C-10.4 1.7 -6.4 0 0 0 Z " fill="#685B4F" transform="translate(176,120)"/>
<path d="M0 0 C0.7 0 1.3 0 2 0 C2.7 1.7 3.3 3.3 4 5 C3.3 6.3 2.7 7.6 2 9 C1.3 9 0.7 9 0 9 C0.2 9.8 0.5 10.7 0.8 11.5 C1.1 16.2 -0.8 18.8 -3 23 C-3.9 27.4 -4.1 29.6 -3 34 C-4.3 33.7 -5.6 33.3 -7 33 C-9 24.2 -9 24.2 -9 22 C-9.7 20.7 -10.3 19.4 -11 18 C-10 17 -9 16 -8 15 C-4.9 10.1 -2.2 5.4 0 0 Z " fill="#A48A61" transform="translate(54,114)"/>
<path d="M0 0 C0.8 0.3 0.8 0.3 5 2 C5.7 2 6.3 2 7 2 C7.3 3.7 7.7 5.3 8 7 C9.6 9.4 11.3 11.7 13 14 C13 14.3 13 14.7 13 15 C14.3 15.1 15.6 15.2 16.9 15.2 C18.2 15.5 19.6 15.7 21 16 C21.7 17.3 22.3 18.6 23 20 C21.4 20 19.7 20 18 20 C17 23 16 25.9 15 29 C5.2 26.2 5.2 26.2 3 24 C5.6 21.4 7.5 21.5 11 21 C10.3 20.3 9.6 19.6 8.9 18.8 C8.3 17.9 7.7 17 7 16 C7.3 14.3 7.7 12.7 8 11 C6.3 8.6 6.3 8.6 4.1 6.3 C0 2 0 2 0 0 Z " fill="#5E7489" transform="translate(42,193)"/>
<path d="M0 0 C0 3 0 3 -1.5 5.9 C-4.5 14.2 -3.7 23.7 -1 32 C2 36.6 4.8 39.2 10 41 C16.5 41.9 22.5 42.3 29 41 C28.8 41.3 28.8 41.3 28 43 C17.3 45.8 8.9 44.6 -0.9 39.5 C-3.4 37.9 -3.4 37.9 -7 35 C-7 34 -7 33 -7 32 C-8.3 31.7 -9.6 31.3 -11 31 C-11.3 29.3 -11.3 29.3 -13 21 C-12 20.7 -11 20.3 -10 20 C-9.6 21.1 -9.1 22.1 -8.7 23.2 C-7 27 -7 27 -4 31 C-4.3 29.7 -4.7 28.4 -5 27 C-5.2 23.9 -5.3 20.8 -5.4 17.8 C-5.4 16.1 -5.5 14.5 -5.5 12.8 C-4.9 7.3 -3.2 4.4 0 0 Z " fill="#AFAEA9" transform="translate(45,48)"/>
<path d="M0 0 C4 2 4 2 7 4 C6.7 5.7 6.3 7.3 6 9 C6 10 6 11 6 12 C5 12.3 4 12.7 3 13 C3 14.7 3 16.3 3 18 C1.7 18.3 0.4 18.7 -1 19 C-3.7 21.6 -3.7 21.6 -6 24 C-10 22 -10 22 -13 17 C-11 16.7 -9 16.3 -7 16 C-6.7 14.7 -6.3 13.4 -6 12 C-5.3 10.7 -4.7 9.4 -4 8 C-2.7 8.3 -1.4 8.7 0 9 C0.3 7.3 0.7 5.7 1 4 C1.3 3.3 1.7 2.7 2 2 C1 1.7 0 1.3 -1 1 C-0.7 0.7 -0.3 0.3 0 0 Z " fill="#A47B4F" transform="translate(51,152)"/>
<path d="M0 0 C0.7 0.3 1.3 0.7 2 1 C-7.2 11.2 -17.8 14.6 -31 17 C-33.3 17.1 -35.7 17.1 -38 17 C-39 21 -40 24.9 -41 29 C-40.3 29.3 -39.7 29.7 -39 30 C-40.3 30.3 -41.6 30.7 -43 31 C-44.6 27.7 -43.5 24.5 -43 21 C-43 19.7 -43 18.4 -43 17 C-43 16.3 -43 15.7 -43 15 C-41.6 14.9 -40.3 14.7 -38.9 14.6 C-33.8 14 -29 13.2 -24 12 C-22.3 12 -20.7 12 -19 12 C-18.7 10.3 -18.3 8.7 -18 7 C-16 6.7 -14 6.3 -12 6 C-11.7 5 -11.3 4 -11 3 C-11 3.7 -11 4.3 -11 5 C-9 5 -7 5 -5 5 C-5 4.3 -5 3.7 -5 3 C-3.3 2 -1.7 1 0 0 Z " fill="#3B281D" transform="translate(105,142)"/>
<path d="M0 0 C2.3 0.3 4.6 0.7 7 1 C7 1.7 7 2.3 7 3 C8 3.3 9 3.7 10 4 C12.6 10.3 13.7 16.2 14 23 C13.3 24 12.7 25 12 26 C11.6 27.6 11.1 29.2 10.7 30.9 C9 35.9 8 37.8 4 41 C3.3 41.7 2.7 42.3 2 43 C1 42.7 0 42.3 -1 42 C-0.7 41.6 -0.7 41.6 0.8 39.4 C3 36 4.5 32.7 6 29 C6.3 28.6 6.3 28.6 7.7 26.3 C9.8 21 9.4 16.7 9 11 C7.7 9.7 6.4 8.4 5 7 C4.7 6 4.3 5 4 4 C2.7 3.3 1.4 2.7 0 2 C0 1.3 0 0.7 0 0 Z " fill="#EFEEEB" transform="translate(142,40)"/>
<path d="M0 0 C0.7 0 1.3 0 2 0 C3.3 1.7 4.5 3.5 5.7 5.3 C9 10 11.3 12.5 17 14 C16.7 15 16.3 16 16 17 C13 17.7 10 18.3 7 19 C2.6 21.4 1.3 22.5 -1 27 C-1 29 -1 31 -1 33 C-0 34 1 35 2 36 C5 41 5 41 6 43 C1.4 41.9 -1.5 39.6 -5.3 36.9 C-9.1 34.2 -13.1 31.6 -17 29 C-13 28 -13 28 -10.4 29.2 C-7.9 30.8 -5.5 32.4 -3 34 C-3.1 32.8 -3.1 31.6 -3.2 30.4 C-3 25.7 -2.6 23 0 19 C4.7 17.1 4.7 17.1 9 16 C7.9 14.5 6.8 12.9 5.6 11.4 C3 7.7 1.1 4.5 0 0 Z " fill="#D9BC68" transform="translate(41,95)"/>
<path d="M0 0 C1.3 1 2.6 2 4 3 C4 3.7 4 4.3 4 5 C6 5 8 5 10 5 C13.8 9.4 13.8 9.4 17 14 C17.7 14.3 18.3 14.7 19 15 C19 15.7 19 16.3 19 17 C20.6 17.7 22.3 18.3 24 19 C28.1 21.2 32.1 23.4 36 26 C36 26.7 36 27.3 36 28 C31 27 31 27 26 25 C25 24.9 24 24.8 23 24.7 C19.1 23.8 18.1 22.2 15.8 19 C12.1 14.1 12.1 14.1 10 13 C9 11.3 8 9.7 7 8 C2.8 5.9 0.6 5.8 -4 6 C-4.2 5.2 -4.2 5.2 -5 1 C-3.3 0.7 -1.7 0.3 0 0 Z " fill="#DFD5AB" transform="translate(19,71)"/>
<path d="M0 0 C0 0.7 0 1.3 0 2 C1.3 2.3 2.6 2.7 4 3 C10.1 9 10.1 9 12 12 C12 18.6 11.3 19.5 7 24 C6.3 23.7 5.7 23.3 5 23 C5 19 5 15.1 5 11 C4 10.7 3.1 10.5 2.1 10.2 C1.1 9.8 0 9.4 -1 9 C-1.3 8 -1.7 7 -2 6 C-3.7 5.7 -5.3 5.3 -7 5 C-6.7 3.7 -6.3 2.4 -6 1 C-4 0 -4 0 0 0 Z " fill="#FDFDF9" transform="translate(130,42)"/>
<path d="M0 0 C1 0.3 2 0.7 3 1 C3 2.3 3 3.6 3 5 C3.7 5 4.3 5 5 5 C5.3 6.3 5.7 7.6 6 9 C7.3 9.3 8.6 9.7 10 10 C10.7 11.3 11.3 12.6 12 14 C17.3 17.1 22.2 19.2 28.1 20.7 C28.9 20.9 28.9 20.9 33 22 C33.2 22.3 33.2 22.3 34 24 C33 24.2 33 24.2 28 25 C28 26.3 28 27.6 28 29 C26.7 28 25.4 27 24 26 C22.2 25 20.3 23.9 18.4 22.9 C15.5 21.4 12.8 19.8 10 18 C10 17.3 10 16.7 10 16 C8.7 15.3 7.4 14.7 6 14 C0 7.1 0 7.1 0 0 Z " fill="#9D9D99" transform="translate(28,70)"/>
<path d="M0 0 C3.8 3.2 7.5 6.5 11 10 C13 10.7 15 11.4 17 12 C19 14 21 16 23 18 C22.3 20 21.7 22 21 24 C19.4 23.3 17.7 22.7 16 22 C13.7 21.3 11.3 20.6 9 20 C8.3 17.4 7.7 14.7 7 12 C6.3 12 5.7 12 5 12 C0 2.2 0 2.2 0 0 Z " fill="#F8DB62" transform="translate(12,152)"/>
<path d="M0 0 C2.1 0.1 4.2 0.2 6.3 0.4 C9.9 0.8 13.4 1 17 1 C17 7.3 17 13.5 17 20 C13 17 13 17 12.2 13.3 C12.2 12.2 12.1 11.1 12 10 C11 9.7 10 9.3 9 9 C8.7 9.5 8.7 9.5 7 12 C5.7 11.7 4.4 11.3 3 11 C3 9 3 7 3 5 C0.4 4.3 -2.3 3.7 -5 3 C-3.7 2.3 -2.4 1.7 -1 1 C-0.7 0.7 -0.3 0.3 0 0 Z " fill="#495F77" transform="translate(48,189)"/>
<path d="M0 0 C2 3 2 3 3 5 C3.5 4.9 3.5 4.9 6 4.4 C16.9 2.5 16.9 2.5 22.9 5.4 C23.9 6.2 25 7.1 26 8 C25.7 8.7 25.3 9.3 25 10 C21.4 10.1 18.1 10 14.6 9.4 C14.2 9.4 14.2 9.4 12 9 C11.7 9.3 11.3 9.7 11 10 C9.7 10.1 8.5 10.3 7.2 10.4 C3 11 3 11 -1 13 C-1.2 12.2 -1.2 12.2 -2 8 C-2.7 7.7 -3.3 7.3 -4 7 C-4.6 3.9 -4.6 3.9 -5 1 C-3.4 0.7 -1.7 0.3 0 0 Z " fill="#5C6C7C" transform="translate(36,181)"/>
<path d="M0 0 C1 5 1 5 0 10 C-2 10.3 -4 10.7 -6 11 C-6 11.3 -6 11.7 -6 12 C-4.3 12.3 -2.7 12.7 -1 13 C-1.3 13.7 -1.7 14.3 -2 15 C-8 15 -8 15 -10.8 12.9 C-13.2 9.7 -14.1 8 -14 4 C-8.7 -1.3 -7 -1.2 0 0 Z " fill="#7C4C2D" transform="translate(106,195)"/>
<path d="M0 0 C0.7 0 1.3 0 2 0 C2.3 0.7 2.7 1.3 3 2 C4.3 1.3 5.6 0.7 7 0 C6.5 3.1 6 6 5 9 C7.6 9.3 10.3 9.7 13 10 C13.3 8.4 13.7 6.7 14 5 C15 5.3 16 5.7 17 6 C15.1 12.8 15.1 12.8 14 15 C14.7 15.3 15.3 15.7 16 16 C12.4 17.8 9 17.3 5 17 C2.2 14.8 0.6 13.1 -1 10 C-0.7 6.7 -0.4 3.3 0 0 Z " fill="#837663" transform="translate(62,55)"/>
<path d="M0 0 C-8.9 5.8 -15.2 7.9 -26 7 C-29.3 6.1 -32.7 5.1 -36 4 C-40.4 3.7 -43.6 4.1 -48 5 C-44.4 1.4 -42.9 1.3 -38 1 C-36 1.3 -34 1.6 -32 2 C-28.7 2 -25.3 2 -22 2 C-22 1.7 -22 1.3 -22 1 C-19.1 0.6 -16.2 0.3 -13.2 -0.1 C-11.6 -0.3 -10 -0.5 -8.3 -0.7 C-4 -1 -4 -1 0 0 Z " fill="#A47043" transform="translate(150,99)"/>
<path d="M0 0 C10.2 2.7 10.2 2.7 13 7 C13 12 13 12 10.8 14.9 C9.9 15.6 9 16.3 8 17 C3 16 3 16 1.2 13.6 C-0.4 8.9 -0.2 4.8 0 0 Z " fill="#875633" transform="translate(68,194)"/>
<path d="M0 0 C0.5 0.3 0.5 0.3 3 2 C3.2 4.6 3.3 7.3 3.5 9.9 C4.2 14.3 6.3 17.5 8.6 21.3 C10.6 25.1 11.3 28.8 12 33 C11.2 33.2 11.2 33.2 7 34 C6 33 6 33 5.7 29.8 C5 26 5 26 3.1 23.6 C-1.7 17.5 -1.3 9.4 -1 2 C-0.7 1.3 -0.3 0.7 0 0 Z " fill="#F1DE89" transform="translate(7,143)"/>
<path d="M0 0 C-1.3 1.3 -2.6 2.6 -4 4 C-4.3 5.3 -4.7 6.6 -5 8 C-5.5 8.1 -5.5 8.1 -8 8.3 C-12.3 9 -16 10.4 -20 12 C-19.7 13.7 -19.3 15.3 -19 17 C-16.4 17.3 -13.7 17.7 -11 18 C-14.9 20 -17.7 20.6 -22 21 C-24.4 18.6 -23.7 14.1 -24 10.8 C-24 8 -24 8 -22 6 C-19.9 5.3 -17.7 4.6 -15.6 4 C-1.6 0 -1.6 0 0 0 Z " fill="#D2B667" transform="translate(158,157)"/>
<path d="M0 0 C-4.9 2.4 -12.3 0.8 -17.6 0.6 C-27.2 1.3 -33.2 5.4 -40 12 C-40.7 13.3 -41.3 14.6 -42 16 C-43.3 16.3 -44.6 16.7 -46 17 C-46 17.7 -46 18.3 -46 19 C-47 19 -48 19 -49 19 C-51.4 16.4 -53.7 13.7 -56 11 C-57 10.3 -58 9.7 -59 9 C-59 8.3 -59 7.7 -59 7 C-59.7 7 -60.3 7 -61 7 C-61.3 6.3 -61.7 5.7 -62 5 C-62.8 4.7 -62.8 4.7 -67 3 C-64 2 -64 2 -59 4 C-56.9 6.1 -56.9 6.1 -55 8.6 C-51 13 -51 13 -46 14 C-42.2 11 -38.9 8.1 -35.8 4.3 C-26.3 -3.5 -11.1 -4.2 0 0 Z " fill="#B2B2AD" transform="translate(145,29)"/>
<path d="M0 0 C2 2 2 2 2.1 6.1 C2.1 7.4 2 8.7 2 10 C-0.7 10.1 -3.5 10.1 -6.2 10.1 C-7.7 10.1 -9.2 10.2 -10.8 10.2 C-15 10 -15 10 -20 8 C-19.7 6.7 -19.3 5.4 -19 4 C-14.5 2.5 -9.9 2.6 -5.2 2.4 C-2 2 -2 2 0 0 Z " fill="#2C2F31" transform="translate(126,241)"/>
<path d="M0 0 C-0.3 1 -0.7 2 -1 3 C-2.3 3 -3.6 3 -5 3 C-5.7 4.3 -6.3 5.6 -7 7 C-9.3 9.4 -11.6 11.7 -14 14 C-14.7 13.3 -15.3 12.7 -16 12 C-15.7 11.3 -15.3 10.7 -15 10 C-16.7 11.7 -18.3 13.3 -20 15 C-19.3 15 -18.7 15 -18 15 C-20.6 20.2 -24.1 21.9 -29 25 C-29.7 24.7 -30.3 24.3 -31 24 C-26.4 13.4 -11.9 0 0 0 Z " fill="#9C693E" transform="translate(184,132)"/>
<path d="M0 0 C3.6 0.1 3.6 0.1 7 1 C7.7 2.3 8.3 3.6 9 5 C8.3 5 7.7 5 7 5 C6.7 6.3 6.3 7.6 6 9 C5 10 4 11 3 12 C2.7 12.7 2.3 13.3 2 14 C1.3 14 0.7 14 0 14 C-0.3 15 -0.7 16 -1 17 C-2.3 16.7 -3.6 16.3 -5 16 C-5 15.3 -5 14.7 -5 14 C-5.7 13.7 -6.3 13.3 -7 13 C-5.9 7.3 -4.1 4.1 0 0 Z " fill="#885A39" transform="translate(112,145)"/>
<path d="M0 0 C0.8 0.3 0.8 0.3 5 2 C5.1 9.5 2.1 12.9 -2.8 18.1 C-5 20 -5 20 -8 20 C-8 18.7 -8 17.4 -8 16 C-7.3 16 -6.7 16 -6 16 C-7.3 14.7 -8.6 13.4 -10 12 C-10 11.3 -10 10.7 -10 10 C-8 10 -6 10 -4 10 C-4.3 8.7 -4.7 7.4 -5 6 C-2 1 -2 1 0 0 Z " fill="#5D778C" transform="translate(172,189)"/>
<path d="M0 0 C4.3 0.7 6.1 1.3 9 4.6 C9 6.3 9 7.9 9 9.6 C8.3 9.6 7.7 9.6 7 9.6 C5.7 8.3 4.4 7 3 5.6 C3.3 6.3 3.7 6.9 4 7.6 C4.1 11.2 4.1 11.2 4 14.6 C3.7 15 3.3 15.3 3 15.6 C1 15.6 -1 15.6 -3 15.6 C-5 11.6 -5 11.6 -4.1 7.9 C-3.9 7.3 -3.9 7.3 -3 4.6 C-5 5.3 -7 5.9 -9 6.6 C-6.2 2.5 -5 0.8 0 0 Z " fill="#624735" transform="translate(124,51.375)"/>
<path d="M0 0 C5.8 1.5 8.6 4.9 13 9 C11 13 11 13 6 15 C3.7 15.4 1.3 15.7 -1 16 C-1 13.5 -1 11 -1.1 8.6 C-1.1 7.2 -1.1 5.8 -1.1 4.4 C-1 1 -1 1 0 0 Z " fill="#E2BD55" transform="translate(110,107)"/>
<path d="M0 0 C0.3 1 0.7 2 1 3 C0.7 3.3 0.3 3.7 0 4 C0.7 4.7 1.3 5.3 2 6 C-3.7 9.8 -8.8 11 -15.6 12 C-16.5 12.1 -16.5 12.1 -21.2 12.9 C-26 13 -26 13 -29.1 11.1 C-29.8 10.4 -30.4 9.7 -31 9 C-29 7 -24.7 7.4 -22.1 7.2 C-13.7 6.3 -7.1 4.7 0 0 Z " fill="#7C7A73" transform="translate(86,86)"/>
<path d="M0 0 C5 1 5 1 8 4 C10.3 4.7 12.6 5.4 15 6 C15.5 15.2 15.5 15.2 13 19.1 C12.3 19.7 11.7 20.4 11 21 C10 20.7 9 20.3 8 20 C8.7 19 9.3 18 10 17 C10 12 10 12 9 9 C5.7 8 2.3 7 -1 6 C-2 5 -3 4 -4 3 C-2.7 2 -1.4 1 0 0 Z " fill="#452F22" transform="translate(70,189)"/>
<path d="M0 0 C4 4 4 4 4 9 C1 12 1 12 -3.1 12.4 C-4.4 12.3 -5.7 12.1 -7 12 C-9 9 -9 9 -9 3 C-5 0 -5 0 0 0 Z " fill="#D3BF88" transform="translate(69,128)"/>
<path d="M0 0 C-0.7 1.7 -1.3 3.3 -2 5 C-2.7 5 -3.3 5 -4 5 C-4 5.7 -4 6.3 -4 7 C-13.7 11.5 -22.4 11.4 -33 11 C-33 10.7 -33 10.3 -33 10 C-31.8 9.8 -31.8 9.8 -26 9 C-27 8.8 -27 8.8 -32 8 C-32 7.7 -32 7.3 -32 7 C-30.7 6.9 -29.3 6.8 -27.9 6.7 C-18.6 6 -8.1 0 0 0 Z " fill="#A8A59F" transform="translate(156,85)"/>
<path d="M0 0 C1 1 1 1 1.1 4.6 C1 5.7 1 6.8 1 8 C0.7 8.2 0.7 8.2 -1 9 C-1.7 11 -2.4 13 -3 15 C-5.3 15 -7.6 15 -10 15 C-9.8 13.8 -9.6 12.6 -9.4 11.3 C-9 7 -9 7 -11 2 C-6.9 0.5 -4.5 0 0 0 Z " fill="#1B1919" transform="translate(132,162)"/>
<path d="M0 0 C0.7 0 1.3 0 2 0 C4.1 5.2 4.3 8.3 4.2 13.8 C4.3 15.3 4.3 16.9 4.3 18.5 C3.7 27.8 1.1 33.4 -5 40.4 C-5.5 40.9 -5.5 40.9 -8 43 C-9.3 42.7 -10.6 42.3 -12 42 C-11.2 41.3 -10.5 40.5 -9.7 39.8 C-7 37 -7 37 -4 33 C-3.3 33 -2.7 33 -2 33 C0.6 21.7 2.1 11.6 0 0 Z " fill="#D7D3C5" transform="translate(166,48)"/>
<path d="M0 0 C3 1 3 1 4 3 C5.3 3 6.5 3.1 7.8 3.1 C8.6 3.2 8.6 3.2 12.8 3.4 C13.6 3.4 13.6 3.4 17.7 3.6 C22 4 22 4 26 6 C26 6.7 26 7.3 26 8 C27.3 8.7 28.6 9.3 30 10 C28.6 9.7 27.3 9.4 25.9 9.1 C24.3 8.7 22.7 8.4 21 8 C20.1 7.8 19.1 7.6 18.2 7.4 C9.4 6.3 1.6 7 -7 9 C-7.3 7.7 -7.7 6.4 -8 5 C-5.4 3.2 -2.7 1.6 0 0 Z " fill="#E8D89A" transform="translate(53,15)"/>
<path d="M0 0 C0.3 0 0.7 0 1 0 C1 2.3 1 4.7 1 7 C0 8 0 8 -3.3 8.2 C-7 8 -7 8 -11 6 C-12.3 6.3 -13.6 6.7 -15 7 C-14.7 9 -14.3 11 -14 13 C-14.8 13.5 -14.8 13.5 -19 16 C-21.7 13.3 -22.1 10.7 -23 7 C-23 5.7 -23 4.4 -23 3 C-20.6 3.1 -18.3 3.2 -15.9 3.4 C-14.6 3.4 -13.3 3.5 -12 3.6 C-8.1 4 -4.7 4.8 -1 6 C-0.7 4 -0.3 2 0 0 Z " fill="#838A8A" transform="translate(36,174)"/>
<path d="M0 0 C0.7 0.7 1.3 1.3 2 2 C-0.3 2.3 -2.6 2.7 -5 3 C-4.7 4 -4.3 5 -4 6 C4.6 7 4.6 7 8 7 C7.7 8 7.3 9 7 10 C5.3 10 3.7 10 2 10 C2.7 11.3 3.3 12.6 4 14 C1.4 15 -1.3 16 -4 17 C-5 16 -6 15 -7 14 C-6.7 12.3 -6.3 10.7 -6 9 C-7 7.7 -8 6.4 -9 5 C-9 3.7 -9 2.4 -9 1 C-6 0 -6 0 0 0 Z " fill="#3A4553" transform="translate(76,220)"/>
<path d="M0 0 C0.7 0.3 1.3 0.7 2 1 C2 2 2 3 2 4 C0.4 4.7 -1.3 5.3 -3 6 C-2.3 7.3 -1.7 8.6 -1 10 C-0.7 10.7 -0.3 11.3 0 12 C-0.7 13.7 -1.3 15.3 -2 17 C-7.2 14.9 -9.5 13.2 -13 9 C-12.7 7.3 -12.3 5.7 -12 4 C-10.8 3.9 -9.5 3.8 -8.2 3.7 C-4 3 -4 3 0 0 Z " fill="#839DAC" transform="translate(37,195)"/>
<path d="M0 0 C3.5 3.5 3.7 5.1 4 10 C3.3 10.7 2.7 11.3 2 12 C1 12 0 12 -1 12 C-0.7 13.7 -0.3 15.3 0 17 C-4 19 -4 19 -9 19 C-10 18 -11 17 -12 16 C-10.4 14 -8.7 12 -7 10 C-5.7 10.3 -4.4 10.7 -3 11 C-3 9.3 -3 7.7 -3 6 C-2 5 -1 4 0 3 C0 2 0 1 0 0 Z " fill="#7E4D2F" transform="translate(57,159)"/>
<path d="M0 0 C1 0.3 2 0.7 3 1 C3 2.7 3 4.3 3 6 C2.7 6.3 2.3 6.7 2 7 C1.6 10 1.3 13 0.9 16.1 C0.8 17.7 0.6 19.4 0.4 21.1 C0.3 22.4 0.1 23.7 0 25 C-2.3 25.3 -4.6 25.7 -7 26 C-7.7 19.4 -5.4 15.6 -2 10 C-1.3 10 -0.7 10 0 10 C-0.2 9.5 -0.2 9.5 -1.1 6.7 C-1.4 5.5 -1.7 4.3 -2 3 C-1.3 2 -0.7 1 0 0 Z " fill="#CBAB6A" transform="translate(181,151)"/>
<path d="M0 0 C2.8 2.8 2.9 5.3 3.6 9.1 C3.9 10.4 4.1 11.7 4.4 13 C4.6 14 4.8 15 5 16 C3.9 16.4 2.8 16.9 1.7 17.3 C-2 19 -2 19 -5 22 C-5.3 21.7 -5.7 21.3 -6 21 C-6 19.3 -6 17.7 -6 16 C-5.3 15.7 -4.7 15.3 -4 15 C-3.6 11.7 -3.6 8.4 -3.4 5 C-3.3 4 -3.2 3 -3 2 C-2 1.3 -1 0.7 0 0 Z " fill="#93928E" transform="translate(175,55)"/>
<path d="M0 0 C3.6 3.5 7 7 10 11 C10 12.7 10 14.3 10 16 C7 16.3 4.1 16.7 1 17 C-1.4 13.4 -1.2 11.7 -1.2 7.4 C-1.2 6.2 -1.2 5 -1.2 3.8 C-1 1 -1 1 0 0 Z " fill="#473B37" transform="translate(38,170)"/>
<path d="M0 0 C2.9 2.8 2.9 2.8 5 6 C4 10 4 10 1 13 C-2.2 13.7 -2.2 13.7 -5 14 C-3 12 -3 12 0 10 C-1.3 10.3 -2.6 10.7 -4 11 C-4 10 -4 9 -4 8 C-3.3 7.7 -2.7 7.3 -2 7 C-1.7 5.3 -1.3 3.7 -1 2 C-5 3 -5 3 -6.9 5.5 C-9 8 -9 8 -11.9 8.9 C-15 9 -15 9 -20 7 C-20 6 -20 5 -20 4 C-19 4.3 -18 4.5 -17 4.8 C-10.1 5.1 -7 0 0 0 Z " fill="#303030" transform="translate(77,175)"/>
<path d="M0 0 C1.2 0.7 1.2 0.7 7 4 C5.8 8.7 4.5 11.8 2 16 C1 15.8 1 15.8 -4 15 C-4 14.3 -4 13.7 -4 13 C-5 12.7 -6 12.3 -7 12 C-5.3 9.8 -3.6 7.6 -1.8 5.4 C0 3 0 3 0 0 Z " fill="#623E29" transform="translate(118,149)"/>
<path d="M0 0 C4.1 0.2 4.1 0.2 7.1 3.2 C7.1 5.2 7.1 7.2 7.1 9.2 C3.1 11.2 3.1 11.2 -1.9 11.2 C-4.9 7.2 -4.9 7.2 -4.9 1.2 C-3.9 0.2 -3.9 0.2 0 0 Z " fill="#C2A76E" transform="translate(85.875,125.75)"/>
<path d="M0 0 C2.3 4.5 1.9 6.2 1 11 C0.1 10.7 -0.9 10.3 -1.9 10 C-5 9 -5 9 -7 9 C-7.7 10.7 -8.3 12.3 -9 14 C-10.2 10.3 -9.6 7.8 -9 4 C-10 3.7 -11 3.3 -12 3 C-11.7 2 -11.3 1 -11 0 C-3.4 -1.1 -3.4 -1.1 0 0 Z " fill="#566B82" transform="translate(177,181)"/>
<path d="M0 0 C1.3 1 2.6 2 4 3 C5.7 3 7.3 3 9 3 C9 3.7 9 4.3 9 5 C8.3 5.3 8.3 5.3 4.6 6.6 C-1.1 8.8 -5.3 12.1 -10 16 C-14.3 19.3 -18.4 22.2 -23 25 C-20.1 19.2 -16.3 16.1 -11 12.6 C-6.1 9.2 -1.9 5.8 0 0 Z " fill="#686764" transform="translate(175,127)"/>
<path d="M0 0 C0.3 1 0.7 2 1 3 C1.8 3.3 1.8 3.3 6 5 C5.3 5.3 4.7 5.7 4 6 C2.7 5.3 1.4 4.7 0 4 C-2.8 3.8 -5.6 3.7 -8.4 3.8 C-9.9 3.7 -11.4 3.7 -12.9 3.7 C-17 4 -17 4 -22 6 C-23 6 -24 6 -25 6 C-25 6.7 -25 7.3 -25 8 C-26 8 -27 8 -28 8 C-28.7 9.3 -29.3 10.6 -30 12 C-30.3 10.7 -30.7 9.4 -31 8 C-30 7 -29 6 -28 5 C-26.4 5 -24.7 5 -23 5 C-22.7 4 -22.3 3 -22 2 C-21.3 2 -20.7 2 -20 2 C-20 1.3 -20 0.7 -20 0 C-13.2 -1.4 -6.8 -0.7 0 0 Z " fill="#9D9B96" transform="translate(72,28)"/>
<path d="M0 0 C4 1 4 1 6 4 C10.1 4.1 14 4 18.1 3.7 C19.3 3.6 20.4 3.6 21.6 3.5 C24.4 3.3 27.2 3.2 30 3 C30.1 5.7 30.1 8.3 30 11 C29.3 11.7 28.7 12.3 28 13 C27 11.3 26 9.7 25 8 C19.8 7.7 19.8 7.7 15 8 C15 7.3 15 6.7 15 6 C13.4 6.1 11.8 6.1 10.1 6.2 C8.4 6.1 6.7 6.1 5 6 C4.3 5 3.7 4 3 3 C-0.1 2.3 -0.1 2.3 -3 2 C-2 1.3 -1 0.7 0 0 Z " fill="#8C806B" transform="translate(151,173)"/>
<path d="M0 0 C2.4 4.8 2.3 7.7 2 13 C1.3 14.7 0.7 16.3 0 18 C-7.1 17.5 -11.6 17.2 -18 14 C-17 13 -16 12 -15 11 C-14.3 11 -13.7 11 -13 11 C-12.7 11.7 -12.3 12.3 -12 13 C-9.3 13.4 -6.7 13.7 -4 14 C-3.7 11.7 -3.3 9.4 -3 7 C-2 6.7 -1 6.3 0 6 C0 4 0 2 0 0 Z " fill="#393533" transform="translate(133,164)"/>
<path d="M0 0 C3.7 3.4 5.8 6.5 8 11 C9.1 12.6 10.1 14.1 11.2 15.8 C14 20 14 20 14 22 C7.6 20.4 4.2 15.8 0.6 10.4 C-1 7 -1 7 -1 1 C-0.7 0.7 -0.3 0.3 0 0 Z " fill="#CEA840" transform="translate(17,141)"/>
<path d="M0 0 C0.3 -0.7 0.7 -1.3 1 -2 C6.9 2.5 6.9 2.5 8 7 C6.7 6.3 5.4 5.7 4 5 C-4.2 1.3 -10.9 -0.9 -20 0 C-23.3 1.2 -23.3 1.2 -26 3 C-27 3.6 -28 4.2 -29 4.9 C-32.1 7.1 -35.1 9.5 -38 12 C-36.7 6.9 -34.9 5.4 -31 2 C-19.7 -3.8 -12.1 -3 0 0 Z " fill="#7F817C" transform="translate(78,36)"/>
<path d="M0 0 C0.8 0.3 0.8 0.3 5 2 C5 3 5 4 5 5 C8 5.3 10.9 5.7 14 6 C14 6.3 14 6.7 14 7 C2.5 10.1 2.5 10.1 -2 9 C-5.8 6.1 -5.8 6.1 -9 3 C-9 2.3 -9 1.7 -9 1 C-7.7 1 -6.4 1 -5.1 1.1 C-1 1 -1 1 0 0 Z " fill="#B08146" transform="translate(57,97)"/>
<path d="M0 0 C3.1 0.4 3.1 0.4 6 1 C7 7.8 7 7.8 7 10 C8 9.7 9 9.3 10 9 C9 13 9 13 8 14 C6.3 14 4.7 14 3 14 C3.3 13 3.7 12 4 11 C2.7 10.3 1.4 9.7 0 9 C-0.7 8.3 -1.3 7.7 -2 7 C-2 2 -2 2 0 0 Z " fill="#2D2E33" transform="translate(144,144)"/>
<path d="M0 0 C1 0 2 0 3 0 C4 1.3 5 2.6 6 4 C3.7 6.6 1.4 9.3 -1 12 C0.3 11.3 1.6 10.7 3 10 C2.3 11.7 1.7 13.3 1 15 C-0.7 15.7 -2.3 16.3 -4 17 C-4 13.7 -4 10.3 -4 7 C-5.3 6.3 -6.6 5.7 -8 5 C-4 2 -4 2 0 2 C0 1.3 0 0.7 0 0 Z " fill="#425062" transform="translate(154,138)"/>
<path d="M0 0 C-0.3 6.4 -3.7 10.7 -7 16 C-8 15.7 -9 15.3 -10 15 C-10.7 11.8 -10.7 11.8 -11 8 C-10 6.7 -9 5.4 -8 4 C-7.3 4 -6.7 4 -6 4 C-6 2.7 -6 1.4 -6 0 C-2 -1 -2 -1 0 0 Z " fill="#7B4C2F" transform="translate(52,116)"/>
<path d="M0 0 C-0.3 1.3 -0.7 2.6 -1 4 C-10.5 5.9 -20.1 4.9 -29.7 4 C-30.8 3.9 -31.9 3.8 -33 3.7 C-35.7 3.5 -38.3 3.2 -41 3 C-41 2.7 -41 2.3 -41 2 C-40.5 2 -40.5 2 -38.1 1.9 C-33.7 1.8 -29.3 1.7 -24.9 1.6 C-23.4 1.5 -21.8 1.5 -20.3 1.4 C-18.8 1.4 -17.3 1.4 -15.8 1.3 C-14.5 1.3 -13.1 1.2 -11.7 1.2 C-7.8 1 -3.9 0 0 0 Z " fill="#89785F" transform="translate(149,137)"/>
<path d="M0 0 C0.7 0.3 1.3 0.7 2 1 C5.3 1.1 8.6 1.1 11.9 1.1 C13.7 1.1 15.5 1.1 17.3 1.1 C22 1 22 1 26 0 C26.7 1.3 27.3 2.6 28 4 C27.2 3.9 26.3 3.8 25.5 3.7 C15.8 2.7 7.5 3.9 -2 6 C-4 6.3 -6 6.7 -8 7 C-8 6.3 -8 5.7 -8 5 C-9.3 4.3 -10.6 3.7 -12 3 C-10.2 2.7 -8.4 2.4 -6.6 2.1 C-1 1 -1 1 0 0 Z " fill="#553929" transform="translate(85,93)"/>
<path d="M0 0 C12.7 -0.3 12.7 -0.3 19 2 C19 2.7 19 3.3 19 4 C20.7 4.7 22.3 5.3 24 6 C28 10 28 10 28 13 C24 11 24 11 21.4 9.3 C14.2 4.8 8.5 2.9 0 2 C0 1.3 0 0.7 0 0 Z " fill="#6C6963" transform="translate(127,31)"/>
<path d="M0 0 C4.3 0 8.6 0 13 0 C11 2 11 2 6 3.4 C1 5 1 5 -1 8 C-3 8 -5 8 -7 8 C-9 8.3 -11 8.6 -13 9 C-14 9 -15 9 -16 9 C-16 8 -16 7 -16 6 C-10.8 3.4 -6.7 3.9 -1 4 C-0.7 2.7 -0.3 1.4 0 0 Z " fill="#45494F" transform="translate(134,177)"/>
<path d="M0 0 C1.7 0.3 3.3 0.7 5 1 C4.1 2 3.1 3 2.1 4.1 C-0.9 7.9 -2.2 10.2 -3 15 C-2.7 16.3 -2.3 17.6 -2 19 C0.3 19.3 2.6 19.7 5 20 C5 20.7 5 21.3 5 22 C5.7 22.3 6.3 22.7 7 23 C6.7 23.3 6.3 23.7 6 24 C3 23.7 -0 23.4 -3 23 C-5 18 -5.9 14.4 -6 9 C-3.6 6.2 -3.6 6.2 -1 4 C-0.7 2.7 -0.3 1.4 0 0 Z " fill="#412C20" transform="translate(109,142)"/>
<path d="M0 0 C0.8 0.2 0.8 0.2 5 1 C5.7 2 6.3 3 7 4 C7.8 4.3 7.8 4.3 12 6 C12 6.7 12 7.3 12 8 C12.7 8 13.3 8 14 8 C15.4 10 16.7 12 18 14 C18.4 14.5 18.4 14.5 20.2 17.2 C22 20 22 20 22 23 C18.1 21 15.3 18.8 12 16 C12.7 15.7 13.3 15.3 14 15 C11.4 9.7 7.7 7.5 3 4 C2 3 1 2 0 1 C0 0.7 0 0.3 0 0 Z " fill="#A6A39E" transform="translate(72,28)"/>
<path d="M0 0 C0.7 1 1.3 2 2 3 C3.7 3.3 5.3 3.7 7 4 C7.3 5 7.7 6 8 7 C8.8 7.3 8.8 7.3 13 9 C13.3 11.1 13.5 13.1 13.8 15.2 C13.9 16.3 14 17.5 14.2 18.7 C14 22.7 12.8 24.1 10 27 C9.3 26.7 8.7 26.3 8 26 C9 24.7 10 23.4 11 22 C11.5 18.1 11.5 18.1 11 14 C8.5 11.1 8.5 11.1 6 9 C6 8.3 6 7.7 6 7 C2.4 7 -1.3 7 -5 7 C-3 3 -3 3 0 0 Z " fill="#F1F1ED" transform="translate(122,44)"/>
<path d="M0 0 C4 2 4 2 5 4 C4.7 5.7 4.3 7.3 4 9 C4.2 11.8 4.6 14.6 4.9 17.3 C5.1 18.8 5.3 20.2 5.5 21.7 C5.7 22.8 5.8 23.9 6 25 C5.3 25 4.7 25 4 25 C4.7 26.3 5.3 27.6 6 29 C7 29.3 8 29.7 9 30 C7 30.7 5 31.3 3 32 C1.6 27.8 1.7 23.8 1.5 19.4 C1.2 12.9 0.8 6.5 0 0 Z " fill="#E6C156" transform="translate(171,84)"/>
<path d="M0 0 C4.9 -0.2 7.6 -0.2 12 2 C11.3 4 10.7 6 10 8 C6.4 8 2.7 8 -1 8 C-1 2 -1 2 0 0 Z " fill="#585652" transform="translate(67,243)"/>
<path d="M0 0 C5 1 5 1 6 2 C6.2 6.3 5.8 9.8 5 14 C3.7 13.7 2.4 13.3 1 13 C0.7 13.2 0.7 13.2 -1 14 C-2 4.8 -2 4.8 -2 2 C-1.3 1.3 -0.7 0.7 0 0 Z " fill="#CFCFCB" transform="translate(95,233)"/>
<path d="M0 0 C6.8 0.9 6.8 0.9 9 2 C9 3 9 4 9 5 C11.2 6.1 13.5 7.2 15.8 8.3 C16.7 8.8 17.7 9.3 18.7 9.8 C19.7 10.2 20.6 10.7 21.6 11.2 C24 13 24 13 24.8 16.2 C24.9 17.1 24.9 18 25 19 C24 19 23 19 22 19 C21.7 17.3 21.3 15.7 21 14 C17.2 12.3 17.2 12.3 13 11 C11.7 10.3 10.4 9.7 9 9 C7.4 8.7 5.7 8.3 4 8 C3.7 6.7 3.3 5.4 3 4 C2 2.7 1 1.4 0 0 Z " fill="#615C56" transform="translate(43,176)"/>
<path d="M0 0 C4.5 1.1 6.5 2.8 10.1 5.8 C11.2 6.6 12.2 7.5 13.3 8.4 C16 11 16 11 18 16 C20 15.7 22 15.3 24 15 C24 15.7 24 16.3 24 17 C18.7 21 18.7 21 15 21 C14.7 19.7 14.4 18.4 14.1 17 C11.1 9.8 6.5 6.3 0 2 C0 1.3 0 0.7 0 0 Z " fill="#918A79" transform="translate(26,139)"/>
<path d="M0 0 C0.9 0.3 1.7 0.7 2.6 1 C3.8 1.5 4.9 1.9 6.1 2.4 C7.3 2.8 8.4 3.3 9.6 3.7 C13 5 13 5 16.4 6 C17.2 6.3 18.1 6.7 19 7 C19.3 8 19.7 9 20 10 C15.7 11.4 12.6 12 8 12 C9 8 9 8 10 6 C8 5.7 8 5.7 -2 4 C-1.3 2.7 -0.7 1.4 0 0 Z " fill="#2C2F32" transform="translate(69,239)"/>
<path d="M0 0 C0.7 0.3 1.3 0.7 2 1 C1.4 1.6 1.4 1.6 -1.4 4.4 C-5 8 -5 8 -6 10 C-2.4 10 1.3 10 5 10 C5 10.3 5 10.7 5 11 C4.2 11.1 4.2 11.1 0.2 11.3 C-5 12 -5 12 -9 15 C-10 15 -11 15 -12 15 C-12.7 20 -13.3 24.9 -14 30 C-14.3 30 -14.7 30 -15 30 C-15.4 22.1 -15.7 15.8 -11 9 C-8.1 6.8 -8.1 6.8 -5 5 C-3.3 3.4 -1.6 1.7 0 0 Z " fill="#DEDDD7" transform="translate(123,41)"/>
<path d="M0 0 C2 0.4 4 0.9 5.9 1.3 C6.5 1.4 6.5 1.4 9.3 2.1 C10.2 2.4 11.1 2.7 12 3 C12.2 3.5 12.2 3.5 13 6 C7.2 6.1 1.8 6 -3.9 5.4 C-9 5 -9 5 -13 7 C-15.3 7.1 -17.7 7.1 -20 7 C-19 5.7 -18 4.4 -17 3 C-12.3 2.6 -12.3 2.6 -6.8 2.8 C-5.9 2.8 -5.9 2.8 -1.3 2.9 C0.1 2.9 1.5 3 3 3 C2 2 1 1 0 0 Z " fill="#885A3A" transform="translate(116,96)"/>
<path d="M0 0 C0.8 0.3 0.8 0.3 5 2 C6 7 6 7 4 12 C4.4 15.8 4.4 15.8 5 19 C3.7 18.7 2.4 18.3 1 18 C-1 9.2 -1 9.2 -1 7 C-1.7 5.7 -2.3 4.4 -3 3 C-2 2 -1 1 0 0 Z " fill="#AD8853" transform="translate(46,129)"/>
<path d="M0 0 C1 3 1 3 0.9 8.4 C0.9 15.1 1.8 21.4 3 28 C-2.7 22.3 -3.9 17.4 -4.2 9.4 C-4.1 8 -4.1 6.5 -4 5 C-3 5 -2 5 -1 5 C-0.7 3.4 -0.3 1.7 0 0 Z " fill="#7B7B74" transform="translate(106,50)"/>
<path d="M0 0 C1 0 2 0 3 0 C2.7 2.3 2.3 4.6 2 7 C-1 7 -1 7 -3 6 C-4.1 8.6 -5.1 11.3 -6 14 C-8 14.3 -10 14.7 -12 15 C-11.3 10.7 -10.7 6.4 -10 2 C-9.7 3.3 -9.3 4.6 -9 6 C-8.1 5.5 -7.1 5.1 -6.2 4.6 C-3 3 -3 3 0 2 C0 1.3 0 0.7 0 0 Z " fill="#CBB173" transform="translate(50,154)"/>
<path d="M0 0 C1 0 2 0 3 0 C3.2 3.7 3.2 3.7 3 8 C1.7 9.3 0.4 10.6 -1 12 C-1.7 11.7 -2.3 11.3 -3 11 C-2.7 10.3 -2.3 9.7 -2 9 C-6.3 10.8 -10 12.6 -14 15 C-15.7 15 -17.3 15 -19 15 C-15 12 -15 12 -11 11 C-10.7 10 -10.3 9 -10 8 C-8.9 7.5 -7.8 7.1 -6.6 6.6 C-3 5 -3 5 0 0 Z " fill="#AFAEAA" transform="translate(158,76)"/>
<path d="M0 0 C0 0.7 0 1.3 0 2 C-3 5 -3 5 -6.1 5.9 C-7 6.2 -8 6.6 -9 7 C-9.7 8.6 -10.3 10.3 -11 12 C-13 12 -15 12 -17 12 C-17.3 13.1 -17.5 14.1 -17.8 15.2 C-19 19 -19 19 -22 23 C-22.3 23.8 -22.3 23.8 -24 28 C-25.6 21.6 -22.2 16.6 -19 11 C-15.9 8.4 -15.9 8.4 -13 7 C-12.2 6.3 -11.4 5.6 -10.5 4.9 C-7.4 2.5 -4 0 0 0 Z " fill="#B8B8B2" transform="translate(52,28)"/>
<path d="M0 0 C12.9 -0.1 12.9 -0.1 18 1 C17.3 1.7 16.7 2.3 16 3 C14.7 3 13.4 2.9 12.1 2.9 C-0 3.2 -10.5 9.9 -20 17 C-16.2 9.4 -8.5 6.2 -1 3 C-0.7 2 -0.3 1 0 0 Z " fill="#C8C5BB" transform="translate(56,21)"/>
<path d="M0 0 C0.8 0 0.8 0 5 0 C5.6 0 5.6 0 8.9 0.1 C7.9 4.1 7.9 4.1 6.9 5.1 C4.4 5.2 2 5.2 -0.5 5.2 C-1.8 5.3 -3.2 5.3 -4.6 5.3 C-8.1 5.1 -8.1 5.1 -11.1 3.1 C-11.1 2.4 -11.1 1.7 -11.1 1.1 C-7.7 -0.7 -3.8 -0 0 0 Z " fill="#E9CF6A" transform="translate(97.125,5.9375)"/>
<path d="M0 0 C6.8 1.3 11.6 5 17 9 C18.5 10 19.9 11 21.4 12.1 C24.9 14.9 26.4 16.8 28 21 C27 21 26 21 25 21 C24 19.3 23 17.7 22 16 C17.4 12.2 13.6 9.8 8 8 C7.7 7 7.3 6 7 5 C6.2 4.7 6.2 4.7 2 3 C1.3 2.7 0.7 2.3 0 2 C0 1.3 0 0.7 0 0 Z " fill="#929592" transform="translate(19,122)"/>
<path d="M0 0 C4.2 2.8 4.2 2.8 8 6 C8 7.7 8 9.3 8 11 C0.9 8.2 -3.3 6.2 -8 0 C-4 -1 -4 -1 0 0 Z " fill="#7A7A73" transform="translate(108,85)"/>
<path d="M0 0 C1.3 0.7 2.6 1.3 4 2 C5.2 6.1 5.2 6.1 6 10 C5 10.7 4 11.3 3 12 C2.6 15 2.6 15 2.4 18.6 C2.4 20.7 2.2 22.9 2 25 C1.3 25.3 0.7 25.7 0 26 C-0.2 21.9 -0.4 17.7 -0.6 13.6 C-0.6 12.4 -0.7 11.2 -0.7 10 C-0.9 7 -0.9 4 -1 1 C-0.7 0.7 -0.3 0.3 0 0 Z " fill="#B3B3AE" transform="translate(170,45)"/>
<path d="M0 0 C1 3 1 3 0.9 6.4 C1.1 11.6 3.4 14.4 7 18 C5.7 18.3 4.4 18.7 3 19 C3.7 20.7 4.3 22.3 5 24 C3.7 23.7 2.4 23.3 1 23 C-0.7 18.6 -0.7 18.6 -2 14 C-2.3 13 -2.7 12 -3 11 C-3.2 7 -3.2 7 -3 3 C-2 2 -1 1 0 0 Z " fill="#F3F2EF" transform="translate(113,55)"/>
<path d="M0 0 C0.8 0.2 0.8 0.2 5 1 C5 2.2 4.9 3.4 4.9 4.6 C5 8.7 5.6 11.3 7 15 C7 16 7 17 7 18 C5.7 17.7 4.4 17.3 3 17 C-0.8 10.6 -0.2 7.3 0 0 Z " fill="#92866F" transform="translate(64,195)"/>
<path d="M0 0 C0.8 0.1 0.8 0.1 4.7 0.3 C5.9 0.4 7.1 0.5 8.3 0.6 C6.3 2.6 6.3 2.6 1.7 2.7 C0.2 2.6 -1.2 2.6 -2.7 2.6 C-2.2 3.7 -1.7 4.7 -1.1 5.9 C0.3 9.6 0.3 9.6 -0.7 12.6 C-1.4 11.6 -2.1 10.7 -2.9 9.7 C-5.7 6.6 -5.7 6.6 -10.7 4.6 C-11 3.2 -11.3 1.9 -11.7 0.6 C-7.6 -0.8 -4.3 -0.3 0 0 Z " fill="#5F5A53" transform="translate(123.6875,140.4375)"/>
<path d="M0 0 C1 0 2 0 3 0 C3 0.7 3 1.3 3 2 C3.7 2.3 4.3 2.7 5 3 C3.7 3 2.4 3 1 3 C1.3 13.1 3.8 18.6 10.9 26.1 C11.6 26.7 12.3 27.3 13 28 C6.3 26.3 2 21.5 -2 16 C-3.4 10.2 -2.7 5.4 0 0 Z " fill="#F2D161" transform="translate(13,135)"/>
<path d="M0 0 C4 1 4 1 6 3 C8.4 13.1 8.4 13.1 6 19 C5.3 19 4.7 19 4 19 C3.9 17.8 3.9 16.6 3.8 15.3 C2.9 10.4 1.6 9.2 -2 6 C-2 5.3 -2 4.7 -2 4 C-0.3 4 1.3 4 3 4 C3 3.3 3 2.7 3 2 C2 1.7 1 1.3 0 1 C0 0.7 0 0.3 0 0 Z " fill="#F4F3F1" transform="translate(78,47)"/>
<path d="M0 0 C0 3 0 5.9 0 9 C1.7 9.3 3.3 9.7 5 10 C4.7 10.7 4.3 11.3 4 12 C-2 12 -2 12 -4.8 9.9 C-7.2 6.8 -7.7 4.9 -8 1 C-5 -1 -5 -1 0 0 Z " fill="#7C6F5C" transform="translate(100,198)"/>
<path d="M0 0 C1.7 1 3.3 2 5 3 C12.1 4.3 12.1 4.3 16 3 C16.3 2 16.7 1 17 0 C17.7 0 18.3 0 19 0 C18 5 18 5 15 9 C11.3 10.2 11.3 10.2 8 11 C9 9.3 10 7.7 11 6 C7.4 6 3.7 6 0 6 C-1 3 -1 3 0 0 Z " fill="#F4F3F0" transform="translate(63,69)"/>
<path d="M0 0 C0 1.3 0 2.6 0 4 C-5.7 6.1 -10 5.9 -16 5 C-16 3.7 -16 2.4 -16 1 C-10.6 -0.4 -5.6 -0.1 0 0 Z " fill="#794C30" transform="translate(78,97)"/>
<path d="M0 0 C0.3 0.2 0.3 0.2 2 1 C1.7 1.2 1.7 1.2 0 2 C0 1.3 0 0.7 0 0 Z M-3 2 C-2 2.2 -2 2.2 3 3 C2.3 3.6 1.5 4.2 0.8 4.8 C-4.2 8.8 -6.7 12.1 -9 18 C-9.7 18 -10.3 18 -11 18 C-11 20.3 -11 22.6 -11 25 C-11.7 25 -12.3 25 -13 25 C-12.9 15.7 -11.2 11.9 -5 5 C-4.3 4 -3.7 3 -3 2 Z " fill="#67625B" transform="translate(47,34)"/>
<path d="M0 0 C-0.3 1 -0.7 2 -1 3 C-2.3 3 -3.6 3 -5 3 C-5.7 4.3 -6.3 5.6 -7 7 C-9.3 9.4 -11.6 11.7 -14 14 C-14.7 13.3 -15.3 12.7 -16 12 C-15.7 11.3 -15.3 10.7 -15 10 C-15.7 9.7 -16.3 9.3 -17 9 C-7 0 -7 0 0 0 Z " fill="#A47448" transform="translate(184,132)"/>
<path d="M0 0 C1.3 1 2.6 2 4 3 C3.2 2.8 2.4 2.7 1.6 2.5 C-7 1.3 -13.4 1.6 -21 6 C-24.5 9.2 -27.8 12.5 -31 16 C-31.3 15.3 -31.7 14.7 -32 14 C-27.9 6.8 -22.2 3.5 -15 0 C-9.7 -1.3 -5.4 -0.7 0 0 Z " fill="#828581" transform="translate(139,34)"/>
<path d="M0 0 C0.3 0 0.7 0 1 0 C1.1 6.8 1.1 6.8 0 9 C0.3 12.7 0.6 16.3 1 20 C-1 19 -3 18 -5 17 C-4.3 14.7 -3.7 12.4 -3 10 C-4 9 -5 8 -6 7 C-5.3 5.7 -4.7 4.4 -4 3 C-2.7 3 -1.4 3 0 3 C0 2 0 1 0 0 Z " fill="#7B8E98" transform="translate(39,196)"/>
<path d="M0 0 C5.3 0 10.6 0 16 0 C16 1 16 2 16 3 C14.9 3.3 13.8 3.6 12.7 3.9 C9 5 9 5 6 7 C4.7 6.3 3.4 5.7 2 5 C1.7 5.7 1.3 6.3 1 7 C-0.3 6.3 -1.6 5.7 -3 5 C-3 4.7 -3 4.3 -3 4 C-1.8 3.8 -1.8 3.8 4 3 C4 2.3 4 1.7 4 1 C2.7 0.7 1.4 0.3 0 0 Z " fill="#BA8C47" transform="translate(71,102)"/>
<path d="M0 0 C4.6 2.8 6.9 4.8 10 9 C10 9.7 10 10.3 10 11 C4.4 9.9 0.1 7.6 -5 5 C-5 4.3 -5 3.7 -5 3 C-6 2.7 -7 2.3 -8 2 C-6 1 -6 1 -1 1 C-0.7 0.7 -0.3 0.3 0 0 Z " fill="#B6B0A0" transform="translate(150,21)"/>
<path d="M0 0 C0.7 0.3 1.3 0.7 2 1 C1 2.3 0 3.6 -1 5 C0.3 4.7 1.6 4.3 3 4 C3 5.6 3 7.3 3 9 C1.7 9.3 0.4 9.7 -1 10 C-0.7 11.6 -0.3 13.3 0 15 C-0.7 15 -1.3 15 -2 15 C-2.3 15.7 -2.7 16.3 -3 17 C-5.2 12.7 -5.6 10.8 -5 6 C-2.5 2.6 -2.5 2.6 0 0 Z " fill="#847969" transform="translate(118,52)"/>
<path d="M0 0 C0.7 0 1.3 0 2 0 C2 1.3 2 2.6 2 4 C3.3 4.3 4.6 4.7 6 5 C6.3 6 6.7 7 7 8 C10.1 9.7 10.1 9.7 13 11 C13 11.7 13 12.3 13 13 C8.9 13.3 6.7 13.4 3.1 11.1 C0.2 8.2 0 7.6 -0.1 3.4 C-0 2.3 -0 1.1 0 0 Z " fill="#445B74" transform="translate(155,186)"/>
<path d="M0 0 C0.7 4 1.3 7.9 2 12 C0 12.3 -2 12.7 -4 13 C-5 9 -6 5.1 -7 1 C-4 0 -4 0 0 0 Z " fill="#667783" transform="translate(182,118)"/>
<path d="M0 0 C-1 4 -1 4 -4.4 6.2 C-8 8 -8 8 -10 8 C-10.3 9 -10.7 10 -11 11 C-12 9 -12 9 -11.5 5.6 C-10 2 -10 2 -6.6 0 C-3 -1 -3 -1 0 0 Z " fill="#49617B" transform="translate(175,127)"/>
<path d="M0 0 C2 2 2 2 2.1 5.6 C2.1 6.7 2 7.9 2 9 C1.5 9.3 1.5 9.3 -1.2 10.8 C-4.1 12.5 -7.1 14.2 -10 16 C-11 15.7 -12 15.3 -13 15 C-11.8 14 -10.6 13 -9.3 12 C-5.2 8.2 -2.7 4.8 0 0 Z " fill="#CAAF74" transform="translate(169,76)"/>
<path d="M0 0 C0.7 0.3 1.3 0.7 2 1 C2.9 4.2 2.9 4.2 3.7 8.2 C4 9.5 4.2 10.8 4.5 12.2 C5 15.9 5 18.4 4 22 C0.9 25.9 0.9 25.9 -2 29 C-2.7 28.7 -3.3 28.3 -4 28 C-3.4 27.1 -2.7 26.2 -2.1 25.3 C1.7 17.3 1.5 8.6 0 0 Z " fill="#C5C4BD" transform="translate(157,49)"/>
<path d="M0 0 C1.3 0.7 2.6 1.3 4 2 C4 2.7 4 3.3 4 4 C6.6 4.7 9.3 5.3 12 6 C11.7 6.2 11.7 6.2 10 7 C9.7 8 9.3 9 9 10 C8.7 9.7 8.3 9.3 8 9 C4.3 9 0.7 9 -3 9 C-2 6 -1 3.1 0 0 Z " fill="#2B2E33" transform="translate(124,154)"/>
</svg>
